<svg width="693" height="114" viewBox="0 0 693 114" fill="none" xmlns="http://www.w3.org/2000/svg">
<path d="M64.352 111.232H33.12C21.9413 111.232 13.664 108.331 8.288 102.528C2.99733 96.7253 0.352 89.216 0.352 80V44.032C0.352 39.3387 1.03467 35.2853 2.4 31.872C3.76533 28.3733 5.77067 25.472 8.416 23.168L25.056 9.216C27.7013 6.99733 31.072 5.33333 35.168 4.224C39.264 3.11466 44.0853 2.56 49.632 2.56H80.864C82.912 2.56 84.4053 3.02933 85.344 3.96799C86.2827 4.90666 86.752 6.4 86.752 8.448V23.936C86.752 25.0453 86.5813 25.984 86.24 26.752C85.984 27.52 85.5573 28.16 84.96 28.672L68.32 42.496C67.9787 42.8373 67.424 43.136 66.656 43.392C65.9733 43.648 65.2053 43.776 64.352 43.776H48.608V65.408C48.608 67.2 49.1627 68.48 50.272 69.248C51.3813 69.9307 53.0027 70.272 55.136 70.272H80.864C82.912 70.272 84.4053 70.7413 85.344 71.68C86.2827 72.6187 86.752 74.112 86.752 76.16V91.392C86.752 92.5013 86.5813 93.44 86.24 94.208C85.984 94.976 85.5573 95.616 84.96 96.128L68.32 109.952C67.9787 110.293 67.424 110.592 66.656 110.848C65.9733 111.104 65.2053 111.232 64.352 111.232ZM80.864 96C82.4853 96 83.6373 95.6587 84.32 94.976C85.088 94.208 85.472 93.0133 85.472 91.392V76.16C85.472 74.5387 85.088 73.3867 84.32 72.704C83.6373 71.936 82.4853 71.552 80.864 71.552H55.136C52.4907 71.552 50.528 71.0827 49.248 70.144C47.968 69.12 47.328 67.5413 47.328 65.408V34.944C47.328 32.8107 47.968 31.232 49.248 30.208C50.528 29.0987 52.4907 28.544 55.136 28.544H80.864C82.4853 28.544 83.6373 28.2027 84.32 27.52C85.088 26.752 85.472 25.5573 85.472 23.936V8.448C85.472 6.82667 85.088 5.67466 84.32 4.992C83.6373 4.224 82.4853 3.84 80.864 3.84H49.632C38.9653 3.84 31.0293 6.016 25.824 10.368C20.704 14.6347 18.144 21.2053 18.144 30.08V69.888C18.144 78.7627 20.704 85.3333 25.824 89.6C31.0293 93.8667 38.9653 96 49.632 96H80.864ZM73.824 83.2V84.48H52.448C44.1707 84.48 38.6667 83.2 35.936 80.64C33.2907 78.08 31.968 73.856 31.968 67.968V32.128C31.968 26.0693 33.3333 21.76 36.064 19.2C38.7947 16.64 44.256 15.36 52.448 15.36H73.824V16.64H52.448C44.9387 16.64 39.8613 17.8347 37.216 20.224C34.5707 22.528 33.248 26.496 33.248 32.128V67.968C33.248 73.5147 34.528 77.44 37.088 79.744C39.648 82.048 44.768 83.2 52.448 83.2H73.824ZM167.22 105.088C164.233 107.648 160.052 109.611 154.676 110.976C149.3 112.427 142.388 113.152 133.94 113.152C125.577 113.152 118.708 112.256 113.332 110.464C108.041 108.757 103.86 106.453 100.788 103.552C97.8013 100.651 95.7107 97.3227 94.516 93.568C93.4067 89.8133 92.852 85.9307 92.852 81.92V42.112C92.852 38.1867 93.4067 34.56 94.516 31.232C95.6253 27.8187 97.6307 24.9173 100.532 22.528L117.172 8.70399C120.159 6.144 124.297 4.18133 129.588 2.81599C134.964 1.36533 141.919 0.639992 150.452 0.639992C158.815 0.639992 165.641 1.32266 170.932 2.688C176.308 4.05333 180.489 5.97333 183.476 8.448C186.548 10.8373 188.639 13.7387 189.748 17.152C190.857 20.48 191.412 24.1493 191.412 28.16V71.808C191.412 75.7333 190.857 79.36 189.748 82.688C188.639 86.016 186.633 88.8747 183.732 91.264L167.22 105.088ZM190.132 71.808V28.16C190.132 24.2347 189.535 20.6933 188.34 17.536C187.231 14.2933 185.183 11.52 182.196 9.216C179.295 6.91199 175.241 5.12 170.036 3.84C164.916 2.56 158.388 1.92 150.452 1.92C142.516 1.92 135.945 2.56 130.74 3.84C125.535 5.12 121.439 6.91199 118.452 9.216C115.551 11.52 113.503 14.2933 112.308 17.536C111.199 20.6933 110.644 24.2347 110.644 28.16V71.808C110.644 75.7333 111.199 79.3173 112.308 82.56C113.503 85.7173 115.551 88.448 118.452 90.752C121.439 92.9707 125.535 94.72 130.74 96C135.945 97.28 142.516 97.92 150.452 97.92C158.388 97.92 164.916 97.28 170.036 96C175.241 94.72 179.295 92.9707 182.196 90.752C185.183 88.448 187.231 85.7173 188.34 82.56C189.535 79.3173 190.132 75.7333 190.132 71.808ZM176.18 68.864C176.18 73.984 174.345 78.1653 170.676 81.408C167.007 84.5653 160.18 86.144 150.196 86.144C140.212 86.144 133.428 84.5653 129.844 81.408C126.26 78.1653 124.468 73.984 124.468 68.864V31.104C124.468 25.984 126.26 21.8453 129.844 18.688C133.428 15.4453 140.212 13.824 150.196 13.824C160.18 13.824 167.007 15.4453 170.676 18.688C174.345 21.8453 176.18 25.984 176.18 31.104V68.864ZM125.748 68.864C125.748 73.6427 127.455 77.5253 130.868 80.512C134.281 83.4133 140.724 84.864 150.196 84.864C159.668 84.864 166.153 83.4133 169.652 80.512C173.151 77.5253 174.9 73.6427 174.9 68.864V31.104C174.9 26.3253 173.151 22.4853 169.652 19.584C166.153 16.5973 159.668 15.104 150.196 15.104C140.724 15.104 134.281 16.5973 130.868 19.584C127.455 22.4853 125.748 26.3253 125.748 31.104V68.864ZM139.7 67.2V32.768C139.7 31.1467 140.34 29.7813 141.62 28.672C142.9 27.4773 145.844 26.88 150.452 26.88C155.06 26.88 158.004 27.4773 159.284 28.672C160.564 29.7813 161.204 31.1467 161.204 32.768V67.2C161.204 68.9067 160.564 70.3573 159.284 71.552C158.004 72.6613 155.06 73.216 150.452 73.216C145.844 73.216 142.9 72.6613 141.62 71.552C140.34 70.3573 139.7 68.9067 139.7 67.2ZM140.98 67.2C140.98 68.0533 141.151 68.8213 141.492 69.504C141.833 70.1013 142.473 70.6133 143.412 71.04V46.72C143.412 45.8667 143.241 45.1413 142.9 44.544C142.559 43.8613 141.919 43.3493 140.98 43.008V67.2ZM236.073 16.384L283.177 69.376V15.36H284.457V84.48H283.177V71.296L234.793 17.024C234.708 16.9387 234.58 16.8533 234.409 16.768C234.324 16.6827 234.238 16.64 234.153 16.64C234.068 16.64 233.982 16.6827 233.897 16.768C233.897 16.8533 233.897 16.9387 233.897 17.024V84.48H232.617V16.768C232.617 16.256 232.788 15.872 233.129 15.616C233.47 15.36 233.812 15.232 234.153 15.232C234.494 15.232 234.793 15.3173 235.049 15.488C235.305 15.6587 235.646 15.9573 236.073 16.384ZM242.985 96C244.606 96 245.758 95.6587 246.441 94.976C247.209 94.208 247.593 93.0133 247.593 91.392V49.152L269.481 75.648V91.392C269.481 93.0133 269.822 94.208 270.505 94.976C271.273 95.6587 272.468 96 274.089 96H293.289C294.91 96 296.062 95.6587 296.745 94.976C297.513 94.208 297.897 93.0133 297.897 91.392V8.448C297.897 6.82667 297.513 5.67466 296.745 4.992C296.062 4.224 294.91 3.84 293.289 3.84H274.089C272.468 3.84 271.273 4.224 270.505 4.992C269.822 5.67466 269.481 6.82667 269.481 8.448V35.712L244.649 7.296C243.54 6.016 242.388 5.12 241.193 4.60799C240.084 4.096 238.718 3.84 237.097 3.84H223.785C222.164 3.84 220.969 4.224 220.201 4.992C219.518 5.67466 219.177 6.82667 219.177 8.448V91.392C219.177 93.0133 219.518 94.208 220.201 94.976C220.969 95.6587 222.164 96 223.785 96H242.985ZM247.081 96.128L230.441 109.952C230.1 110.293 229.545 110.592 228.777 110.848C228.094 111.104 227.326 111.232 226.473 111.232H207.273C205.225 111.232 203.732 110.763 202.793 109.824C201.854 108.885 201.385 107.392 201.385 105.344V22.4C201.385 21.2907 201.513 20.352 201.769 19.584C202.11 18.816 202.58 18.176 203.177 17.664L219.689 3.712C220.116 3.37066 220.67 3.11466 221.353 2.94399C222.121 2.688 222.932 2.56 223.785 2.56H237.097C238.974 2.56 240.553 2.85866 241.833 3.45599C243.113 4.05333 244.393 5.03466 245.673 6.39999L254.505 16.64L269.993 3.712C270.42 3.37066 270.974 3.11466 271.657 2.94399C272.425 2.688 273.236 2.56 274.089 2.56H293.289C295.337 2.56 296.83 3.02933 297.769 3.96799C298.708 4.90666 299.177 6.4 299.177 8.448V91.392C299.177 92.5013 299.006 93.44 298.665 94.208C298.409 94.976 297.982 95.616 297.385 96.128L280.745 109.952C280.404 110.293 279.849 110.592 279.081 110.848C278.398 111.104 277.63 111.232 276.777 111.232H257.577C255.529 111.232 254.036 110.763 253.097 109.824C252.158 108.885 251.689 107.392 251.689 105.344V90.112L248.873 86.656V91.392C248.873 92.5013 248.702 93.44 248.361 94.208C248.105 94.976 247.678 95.616 247.081 96.128ZM355.31 111.232H334.574C332.526 111.232 331.033 110.763 330.094 109.824C329.155 108.885 328.686 107.392 328.686 105.344V43.776H311.15C309.102 43.776 307.609 43.3067 306.67 42.368C305.731 41.4293 305.262 39.936 305.262 37.888V22.4C305.262 21.2907 305.39 20.352 305.646 19.584C305.987 18.816 306.457 18.176 307.054 17.664L323.566 3.712C323.993 3.37066 324.547 3.11466 325.23 2.94399C325.998 2.688 326.809 2.56 327.662 2.56H395.246C397.294 2.56 398.787 3.02933 399.726 3.96799C400.665 4.90666 401.134 6.4 401.134 8.448V23.936C401.134 25.0453 400.963 25.984 400.622 26.752C400.366 27.52 399.939 28.16 399.342 28.672L382.702 42.496C382.361 42.8373 381.806 43.136 381.038 43.392C380.355 43.648 379.587 43.776 378.734 43.776H377.71V91.392C377.71 92.5013 377.539 93.44 377.198 94.208C376.942 94.976 376.515 95.616 375.918 96.128L359.278 109.952C358.937 110.293 358.382 110.592 357.614 110.848C356.931 111.104 356.163 111.232 355.31 111.232ZM371.822 96C373.443 96 374.595 95.6587 375.278 94.976C376.046 94.208 376.43 93.0133 376.43 91.392V28.544H395.246C396.867 28.544 398.019 28.2027 398.702 27.52C399.47 26.752 399.854 25.5573 399.854 23.936V8.448C399.854 6.82667 399.47 5.67466 398.702 4.992C398.019 4.224 396.867 3.84 395.246 3.84H327.662C326.041 3.84 324.846 4.224 324.078 4.992C323.395 5.67466 323.054 6.82667 323.054 8.448V23.936C323.054 25.5573 323.395 26.752 324.078 27.52C324.846 28.2027 326.041 28.544 327.662 28.544H346.478V91.392C346.478 93.0133 346.819 94.208 347.502 94.976C348.27 95.6587 349.465 96 351.086 96H371.822ZM360.814 84.48V16.64H334.574V15.36H388.334V16.64H362.094V84.48H360.814ZM432.855 57.216V61.184H482.775V57.216C482.775 54.912 482.562 52.7787 482.135 50.816C481.794 48.8533 481.324 47.0187 480.727 45.312L471.895 24.448C470.956 22.2293 469.975 20.3947 468.951 18.944C467.927 17.408 466.22 16.64 463.831 16.64H451.287C448.727 16.64 446.935 17.408 445.911 18.944C444.887 20.3947 443.948 22.1867 443.095 24.32L434.903 45.312C434.306 47.0187 433.794 48.8533 433.367 50.816C433.026 52.7787 432.855 54.912 432.855 57.216ZM453.335 30.72C453.676 29.952 454.018 29.3973 454.359 29.056C454.786 28.7147 455.255 28.544 455.767 28.544H458.967C459.479 28.544 459.906 28.7147 460.247 29.056C460.674 29.3973 461.058 29.952 461.399 30.72L467.415 50.176H447.319L453.335 30.72ZM482.775 84.48V62.464H432.855V84.48H431.575V57.216C431.575 54.8267 431.746 52.6507 432.087 50.688C432.514 48.64 433.068 46.6773 433.751 44.8L441.943 23.808C442.882 21.4187 443.948 19.4133 445.143 17.792C446.338 16.1707 448.386 15.36 451.287 15.36H463.831C466.647 15.36 468.61 16.1707 469.719 17.792C470.914 19.4133 472.023 21.4613 473.047 23.936L481.879 44.8C482.562 46.6773 483.074 48.64 483.415 50.688C483.842 52.6507 484.055 54.8267 484.055 57.216V84.48H482.775ZM446.039 91.392V73.472H468.695V91.392C468.695 93.0133 469.079 94.208 469.847 94.976C470.7 95.6587 471.98 96 473.687 96H493.015C494.636 96 495.788 95.6587 496.471 94.976C497.239 94.208 497.623 93.0133 497.623 91.392V57.6C497.623 55.04 497.196 52.096 496.343 48.768C495.575 45.44 494.338 41.5573 492.631 37.12L481.495 8.064C480.983 6.61333 480.172 5.54666 479.063 4.864C478.039 4.18133 476.716 3.84 475.095 3.84H440.663C438.956 3.84 437.548 4.18133 436.439 4.864C435.415 5.54666 434.647 6.61333 434.135 8.064L422.999 37.12C421.292 41.5573 420.012 45.44 419.159 48.768C418.391 52.096 418.007 55.04 418.007 57.6V91.392C418.007 93.0133 418.348 94.208 419.031 94.976C419.799 95.6587 420.994 96 422.615 96H441.431C443.052 96 444.204 95.6587 444.887 94.976C445.655 94.208 446.039 93.0133 446.039 91.392ZM428.887 109.952C428.546 110.293 427.991 110.592 427.223 110.848C426.54 111.104 425.772 111.232 424.919 111.232H406.103C404.055 111.232 402.562 110.763 401.623 109.824C400.684 108.885 400.215 107.392 400.215 105.344V71.552C400.215 68.9067 400.599 65.92 401.367 62.592C402.22 59.1787 403.543 55.168 405.335 50.56L416.343 21.632C416.599 20.864 416.898 20.224 417.239 19.712C417.666 19.1147 418.092 18.6027 418.519 18.176L418.647 18.048L435.031 4.352C435.714 3.75466 436.524 3.328 437.463 3.072C438.402 2.73066 439.468 2.56 440.663 2.56H475.095C477.058 2.56 478.636 2.98666 479.831 3.84C481.111 4.608 482.05 5.84533 482.647 7.55199L493.783 36.608C495.575 41.216 496.855 45.2267 497.623 48.64C498.476 51.968 498.903 54.9547 498.903 57.6V91.392C498.903 92.5013 498.732 93.44 498.391 94.208C498.135 94.976 497.708 95.616 497.111 96.128L480.471 109.952C480.13 110.293 479.575 110.592 478.807 110.848C478.124 111.104 477.356 111.232 476.503 111.232H457.175C455.042 111.232 453.463 110.72 452.439 109.696C451.415 108.757 450.903 107.307 450.903 105.344V88.704H447.319V91.392C447.319 92.5013 447.148 93.44 446.807 94.208C446.551 94.976 446.124 95.616 445.527 96.128L428.887 109.952ZM570.977 111.232H539.745C528.566 111.232 520.289 108.331 514.913 102.528C509.622 96.7253 506.977 89.216 506.977 80V44.032C506.977 39.3387 507.66 35.2853 509.025 31.872C510.39 28.3733 512.396 25.472 515.041 23.168L531.681 9.216C534.326 6.99733 537.697 5.33333 541.793 4.224C545.889 3.11466 550.71 2.56 556.257 2.56H587.489C589.537 2.56 591.03 3.02933 591.969 3.96799C592.908 4.90666 593.377 6.4 593.377 8.448V23.936C593.377 25.0453 593.206 25.984 592.865 26.752C592.609 27.52 592.182 28.16 591.585 28.672L574.945 42.496C574.604 42.8373 574.049 43.136 573.281 43.392C572.598 43.648 571.83 43.776 570.977 43.776H555.233V65.408C555.233 67.2 555.788 68.48 556.897 69.248C558.006 69.9307 559.628 70.272 561.761 70.272H587.489C589.537 70.272 591.03 70.7413 591.969 71.68C592.908 72.6187 593.377 74.112 593.377 76.16V91.392C593.377 92.5013 593.206 93.44 592.865 94.208C592.609 94.976 592.182 95.616 591.585 96.128L574.945 109.952C574.604 110.293 574.049 110.592 573.281 110.848C572.598 111.104 571.83 111.232 570.977 111.232ZM587.489 96C589.11 96 590.262 95.6587 590.945 94.976C591.713 94.208 592.097 93.0133 592.097 91.392V76.16C592.097 74.5387 591.713 73.3867 590.945 72.704C590.262 71.936 589.11 71.552 587.489 71.552H561.761C559.116 71.552 557.153 71.0827 555.873 70.144C554.593 69.12 553.953 67.5413 553.953 65.408V34.944C553.953 32.8107 554.593 31.232 555.873 30.208C557.153 29.0987 559.116 28.544 561.761 28.544H587.489C589.11 28.544 590.262 28.2027 590.945 27.52C591.713 26.752 592.097 25.5573 592.097 23.936V8.448C592.097 6.82667 591.713 5.67466 590.945 4.992C590.262 4.224 589.11 3.84 587.489 3.84H556.257C545.59 3.84 537.654 6.016 532.449 10.368C527.329 14.6347 524.769 21.2053 524.769 30.08V69.888C524.769 78.7627 527.329 85.3333 532.449 89.6C537.654 93.8667 545.59 96 556.257 96H587.489ZM580.449 83.2V84.48H559.073C550.796 84.48 545.292 83.2 542.561 80.64C539.916 78.08 538.593 73.856 538.593 67.968V32.128C538.593 26.0693 539.958 21.76 542.689 19.2C545.42 16.64 550.881 15.36 559.073 15.36H580.449V16.64H559.073C551.564 16.64 546.486 17.8347 543.841 20.224C541.196 22.528 539.873 26.496 539.873 32.128V67.968C539.873 73.5147 541.153 77.44 543.713 79.744C546.273 82.048 551.393 83.2 559.073 83.2H580.449ZM646.31 111.232H625.574C623.526 111.232 622.033 110.763 621.094 109.824C620.155 108.885 619.686 107.392 619.686 105.344V43.776H602.15C600.102 43.776 598.609 43.3067 597.67 42.368C596.731 41.4293 596.262 39.936 596.262 37.888V22.4C596.262 21.2907 596.39 20.352 596.646 19.584C596.987 18.816 597.457 18.176 598.054 17.664L614.566 3.712C614.993 3.37066 615.547 3.11466 616.23 2.94399C616.998 2.688 617.809 2.56 618.662 2.56H686.246C688.294 2.56 689.787 3.02933 690.726 3.96799C691.665 4.90666 692.134 6.4 692.134 8.448V23.936C692.134 25.0453 691.963 25.984 691.622 26.752C691.366 27.52 690.939 28.16 690.342 28.672L673.702 42.496C673.361 42.8373 672.806 43.136 672.038 43.392C671.355 43.648 670.587 43.776 669.734 43.776H668.71V91.392C668.71 92.5013 668.539 93.44 668.198 94.208C667.942 94.976 667.515 95.616 666.918 96.128L650.278 109.952C649.937 110.293 649.382 110.592 648.614 110.848C647.931 111.104 647.163 111.232 646.31 111.232ZM662.822 96C664.443 96 665.595 95.6587 666.278 94.976C667.046 94.208 667.43 93.0133 667.43 91.392V28.544H686.246C687.867 28.544 689.019 28.2027 689.702 27.52C690.47 26.752 690.854 25.5573 690.854 23.936V8.448C690.854 6.82667 690.47 5.67466 689.702 4.992C689.019 4.224 687.867 3.84 686.246 3.84H618.662C617.041 3.84 615.846 4.224 615.078 4.992C614.395 5.67466 614.054 6.82667 614.054 8.448V23.936C614.054 25.5573 614.395 26.752 615.078 27.52C615.846 28.2027 617.041 28.544 618.662 28.544H637.478V91.392C637.478 93.0133 637.819 94.208 638.502 94.976C639.27 95.6587 640.465 96 642.086 96H662.822ZM651.814 84.48V16.64H625.574V15.36H679.334V16.64H653.094V84.48H651.814Z" fill="black"/>
</svg>
