<svg width="986" height="110" viewBox="0 0 986 110" fill="none" xmlns="http://www.w3.org/2000/svg">
<path d="M66.04 109.232H6.648C4.6 109.232 3.10667 108.763 2.168 107.824C1.22933 106.885 0.76 105.392 0.76 103.344V20.4C0.76 19.2907 0.888 18.352 1.144 17.584C1.48533 16.816 1.95467 16.176 2.552 15.664L19.064 1.712C19.4907 1.37066 20.0453 1.11466 20.728 0.943993C21.496 0.687996 22.3067 0.559998 23.16 0.559998H82.552C84.6 0.559998 86.0933 1.02933 87.032 1.96799C87.9707 2.90666 88.44 4.4 88.44 6.448V21.424C88.44 22.5333 88.2693 23.472 87.928 24.24C87.672 25.008 87.2453 25.648 86.648 26.16L75.64 35.248C76.4933 35.6747 77.0907 36.3147 77.432 37.168C77.8587 38.0213 78.072 39.1307 78.072 40.496V54.192C78.072 55.3013 77.9013 56.24 77.56 57.008C77.304 57.776 76.8773 58.416 76.28 58.928L64.888 68.528H82.552C84.6 68.528 86.0933 68.9973 87.032 69.936C87.9707 70.8747 88.44 72.368 88.44 74.416V89.392C88.44 90.5013 88.2693 91.44 87.928 92.208C87.672 92.976 87.2453 93.616 86.648 94.128L70.008 107.952C69.6667 108.293 69.112 108.592 68.344 108.848C67.6613 109.104 66.8933 109.232 66.04 109.232ZM82.552 94C84.1733 94 85.3253 93.6587 86.008 92.976C86.776 92.208 87.16 91.0133 87.16 89.392V74.416C87.16 72.7947 86.776 71.6427 86.008 70.96C85.3253 70.192 84.1733 69.808 82.552 69.808H47.224V58.8H72.184C73.8053 58.8 74.9573 58.4587 75.64 57.776C76.408 57.008 76.792 55.8133 76.792 54.192V40.496C76.792 38.8747 76.408 37.7227 75.64 37.04C74.9573 36.272 73.8053 35.888 72.184 35.888H47.224V26.032H82.552C84.1733 26.032 85.3253 25.6907 86.008 25.008C86.776 24.24 87.16 23.0453 87.16 21.424V6.448C87.16 4.82667 86.776 3.67466 86.008 2.992C85.3253 2.224 84.1733 1.84 82.552 1.84H23.16C21.5387 1.84 20.344 2.224 19.576 2.992C18.8933 3.67466 18.552 4.82667 18.552 6.448V89.392C18.552 91.0133 18.8933 92.208 19.576 92.976C20.344 93.6587 21.5387 94 23.16 94H82.552ZM75.64 81.2V82.48H32.504V13.36H75.64V14.64H33.784V46.768H65.272V48.048H33.784V81.2H75.64ZM128.876 76.72V82.48H127.596V76.72C127.596 74.8427 127.639 73.0933 127.724 71.472C127.895 69.7653 128.492 68.2293 129.516 66.864L144.876 45.872L129.516 25.136C128.577 23.7707 128.023 22.2773 127.852 20.656C127.681 18.9493 127.596 17.1573 127.596 15.28V13.36H128.876V15.28C128.876 17.072 128.961 18.7787 129.132 20.4C129.303 22.0213 129.815 23.4293 130.668 24.624L146.028 45.36H161.26L176.108 24.624C176.961 23.4293 177.473 22.0213 177.644 20.4C177.815 18.7787 177.9 17.072 177.9 15.28V13.36H179.18V15.28C179.18 17.1573 179.095 18.9493 178.924 20.656C178.753 22.2773 178.199 23.7707 177.26 25.136L162.156 46.128L177.26 66.864C178.199 68.2293 178.753 69.7653 178.924 71.472C179.095 73.0933 179.18 74.8427 179.18 76.72V82.48H177.9V76.72C177.9 74.928 177.815 73.2213 177.644 71.6C177.473 69.9787 176.961 68.5707 176.108 67.376L161.132 46.64H145.772L130.668 67.376C129.815 68.4853 129.303 69.8933 129.132 71.6C128.961 73.2213 128.876 74.928 128.876 76.72ZM142.572 89.392V76.72C142.572 75.8667 142.615 74.9707 142.7 74.032C142.785 73.0933 143.127 72.1973 143.724 71.344L149.484 63.28C149.996 62.512 150.465 61.9573 150.892 61.616C151.319 61.2747 151.873 61.104 152.556 61.104H154.348C155.031 61.104 155.585 61.2747 156.012 61.616C156.439 61.9573 156.908 62.512 157.42 63.28L163.052 71.344C163.649 72.1973 163.991 73.0933 164.076 74.032C164.161 74.9707 164.204 75.8667 164.204 76.72V89.392C164.204 91.0133 164.545 92.208 165.228 92.976C165.996 93.6587 167.191 94 168.812 94H188.268C189.889 94 191.041 93.6587 191.724 92.976C192.492 92.208 192.876 91.0133 192.876 89.392V75.696C192.876 71.7707 192.535 68.8267 191.852 66.864C191.255 64.9013 189.975 62.5973 188.012 59.952L177.644 46.128L188.012 32.048C189.889 29.4027 191.169 27.0987 191.852 25.136C192.535 23.1733 192.876 20.2293 192.876 16.304V6.448C192.876 4.82667 192.492 3.67466 191.724 2.992C191.041 2.224 189.889 1.84 188.268 1.84H168.812C167.191 1.84 165.996 2.224 165.228 2.992C164.545 3.67466 164.204 4.82667 164.204 6.448V15.28C164.204 16.1333 164.161 17.0293 164.076 17.968C163.991 18.9067 163.649 19.8027 163.052 20.656L157.292 28.72C156.78 29.4027 156.311 29.9573 155.884 30.384C155.457 30.7253 154.903 30.896 154.22 30.896H152.684C152.001 30.896 151.404 30.7253 150.892 30.384C150.465 29.9573 150.039 29.4027 149.612 28.72L143.98 20.656C143.383 19.8027 143.041 18.9067 142.956 17.968C142.871 17.0293 142.828 16.1333 142.828 15.28V6.448C142.828 4.82667 142.444 3.67466 141.676 2.992C140.993 2.224 139.841 1.84 138.22 1.84H118.508C116.887 1.84 115.692 2.224 114.924 2.992C114.241 3.67466 113.9 4.82667 113.9 6.448V16.304C113.9 20.2293 114.199 23.1733 114.796 25.136C115.479 27.0987 116.801 29.4027 118.764 32.048L129.132 46L118.764 59.952C116.887 62.5973 115.607 64.9013 114.924 66.864C114.241 68.8267 113.9 71.7707 113.9 75.696V89.392C113.9 91.0133 114.241 92.208 114.924 92.976C115.692 93.6587 116.887 94 118.508 94H137.964C139.585 94 140.737 93.6587 141.42 92.976C142.188 92.208 142.572 91.0133 142.572 89.392ZM142.06 94.128L125.42 107.952C125.079 108.293 124.524 108.592 123.756 108.848C123.073 109.104 122.305 109.232 121.452 109.232H101.996C99.948 109.232 98.4547 108.763 97.516 107.824C96.5773 106.885 96.108 105.392 96.108 103.344V89.648C96.108 85.4667 96.4493 82.352 97.132 80.304C97.8147 78.256 99.18 75.8667 101.228 73.136L111.084 59.952L101.228 46.768C99.18 44.0373 97.8147 41.648 97.132 39.6C96.4493 37.552 96.108 34.4373 96.108 30.256V20.4C96.108 19.2907 96.236 18.352 96.492 17.584C96.8333 16.816 97.3027 16.176 97.9 15.664L114.412 1.712C114.839 1.37066 115.393 1.11466 116.076 0.943993C116.844 0.687996 117.655 0.559998 118.508 0.559998H138.22C140.268 0.559998 141.761 1.02933 142.7 1.96799C143.639 2.90666 144.108 4.4 144.108 6.448V15.28C144.108 16.048 144.108 16.8587 144.108 17.712C144.193 18.48 144.492 19.2053 145.004 19.888L146.412 21.936V20.4C146.412 19.2907 146.54 18.352 146.796 17.584C147.137 16.816 147.607 16.176 148.204 15.664L164.716 1.712C165.143 1.37066 165.697 1.11466 166.38 0.943993C167.148 0.687996 167.959 0.559998 168.812 0.559998H188.268C190.316 0.559998 191.809 1.02933 192.748 1.96799C193.687 2.90666 194.156 4.4 194.156 6.448V16.304C194.156 20.4853 193.815 23.6 193.132 25.648C192.449 27.696 191.084 30.0853 189.036 32.816L179.18 46.128L189.036 59.184C191.084 61.9147 192.449 64.304 193.132 66.352C193.815 68.4 194.156 71.5147 194.156 75.696V89.392C194.156 90.5013 193.985 91.44 193.644 92.208C193.388 92.976 192.961 93.616 192.364 94.128L175.724 107.952C175.383 108.293 174.828 108.592 174.06 108.848C173.377 109.104 172.609 109.232 171.756 109.232H152.3C150.252 109.232 148.759 108.763 147.82 107.824C146.881 106.885 146.412 105.392 146.412 103.344V90.672C146.412 89.904 146.369 89.136 146.284 88.368C146.284 87.6 146.028 86.832 145.516 86.064L143.852 83.76V89.392C143.852 90.5013 143.681 91.44 143.34 92.208C143.084 92.976 142.657 93.616 142.06 94.128ZM230.113 109.232H210.273C208.225 109.232 206.732 108.763 205.793 107.824C204.854 106.885 204.385 105.392 204.385 103.344V20.4C204.385 19.2907 204.513 18.352 204.769 17.584C205.11 16.816 205.58 16.176 206.177 15.664L222.689 1.712C223.116 1.37066 223.67 1.11466 224.353 0.943993C225.121 0.687996 225.932 0.559998 226.785 0.559998H265.953C272.012 0.559998 277.089 1.2 281.185 2.48C285.281 3.75999 288.524 5.55199 290.913 7.856C293.302 10.16 294.966 12.9333 295.905 16.176C296.929 19.4187 297.441 22.96 297.441 26.8V43.184C297.441 47.28 296.844 51.0347 295.649 54.448C294.54 57.776 292.577 60.6347 289.761 63.024L273.121 76.848C270.988 78.64 268.214 80.1333 264.801 81.328C261.473 82.4373 257.377 83.0773 252.513 83.248V89.392C252.513 90.5013 252.342 91.44 252.001 92.208C251.745 92.976 251.318 93.616 250.721 94.128L234.081 107.952C233.74 108.293 233.185 108.592 232.417 108.848C231.734 109.104 230.966 109.232 230.113 109.232ZM246.625 94C248.246 94 249.398 93.6587 250.081 92.976C250.849 92.208 251.233 91.0133 251.233 89.392V68.144H265.953C277.558 68.144 285.494 65.84 289.761 61.232C294.028 56.624 296.161 50.608 296.161 43.184V26.8C296.161 19.376 294.028 13.36 289.761 8.752C285.494 4.144 277.558 1.84 265.953 1.84H226.785C225.164 1.84 223.969 2.224 223.201 2.992C222.518 3.67466 222.177 4.82667 222.177 6.448V89.392C222.177 91.0133 222.518 92.208 223.201 92.976C223.969 93.6587 225.164 94 226.785 94H246.625ZM264.161 57.264H237.793V82.48H236.513V13.36H264.161C268.172 13.36 271.414 13.8293 273.889 14.768C276.449 15.6213 278.412 16.816 279.777 18.352C281.142 19.888 282.081 21.7227 282.593 23.856C283.105 25.9893 283.361 28.2933 283.361 30.768V40.24C283.361 42.7147 283.105 45.0187 282.593 47.152C282.081 49.2 281.142 50.992 279.777 52.528C278.412 53.9787 276.449 55.1307 273.889 55.984C271.414 56.8373 268.172 57.264 264.161 57.264ZM237.793 55.984H264.161C267.916 55.984 270.945 55.6 273.249 54.832C275.638 54.064 277.473 52.9973 278.753 51.632C280.033 50.1813 280.886 48.5173 281.313 46.64C281.825 44.6773 282.081 42.544 282.081 40.24V30.768C282.081 28.464 281.825 26.3307 281.313 24.368C280.886 22.4053 280.033 20.6987 278.753 19.248C277.473 17.7973 275.638 16.688 273.249 15.92C270.945 15.0667 267.916 14.64 264.161 14.64H237.793V55.984ZM250.977 25.776H262.497C264.972 25.776 266.593 26.416 267.361 27.696C268.129 28.976 268.513 30.4267 268.513 32.048V38.832C268.513 40.4533 268.129 41.904 267.361 43.184C266.593 44.464 264.972 45.104 262.497 45.104H250.977V25.776ZM369.79 109.232H310.398C308.35 109.232 306.857 108.763 305.918 107.824C304.979 106.885 304.51 105.392 304.51 103.344V20.4C304.51 19.2907 304.638 18.352 304.894 17.584C305.235 16.816 305.705 16.176 306.302 15.664L322.814 1.712C323.241 1.37066 323.795 1.11466 324.478 0.943993C325.246 0.687996 326.057 0.559998 326.91 0.559998H386.302C388.35 0.559998 389.843 1.02933 390.782 1.96799C391.721 2.90666 392.19 4.4 392.19 6.448V21.424C392.19 22.5333 392.019 23.472 391.678 24.24C391.422 25.008 390.995 25.648 390.398 26.16L379.39 35.248C380.243 35.6747 380.841 36.3147 381.182 37.168C381.609 38.0213 381.822 39.1307 381.822 40.496V54.192C381.822 55.3013 381.651 56.24 381.31 57.008C381.054 57.776 380.627 58.416 380.03 58.928L368.638 68.528H386.302C388.35 68.528 389.843 68.9973 390.782 69.936C391.721 70.8747 392.19 72.368 392.19 74.416V89.392C392.19 90.5013 392.019 91.44 391.678 92.208C391.422 92.976 390.995 93.616 390.398 94.128L373.758 107.952C373.417 108.293 372.862 108.592 372.094 108.848C371.411 109.104 370.643 109.232 369.79 109.232ZM386.302 94C387.923 94 389.075 93.6587 389.758 92.976C390.526 92.208 390.91 91.0133 390.91 89.392V74.416C390.91 72.7947 390.526 71.6427 389.758 70.96C389.075 70.192 387.923 69.808 386.302 69.808H350.974V58.8H375.934C377.555 58.8 378.707 58.4587 379.39 57.776C380.158 57.008 380.542 55.8133 380.542 54.192V40.496C380.542 38.8747 380.158 37.7227 379.39 37.04C378.707 36.272 377.555 35.888 375.934 35.888H350.974V26.032H386.302C387.923 26.032 389.075 25.6907 389.758 25.008C390.526 24.24 390.91 23.0453 390.91 21.424V6.448C390.91 4.82667 390.526 3.67466 389.758 2.992C389.075 2.224 387.923 1.84 386.302 1.84H326.91C325.289 1.84 324.094 2.224 323.326 2.992C322.643 3.67466 322.302 4.82667 322.302 6.448V89.392C322.302 91.0133 322.643 92.208 323.326 92.976C324.094 93.6587 325.289 94 326.91 94H386.302ZM379.39 81.2V82.48H336.254V13.36H379.39V14.64H337.534V46.768H369.022V48.048H337.534V81.2H379.39ZM461.81 14.64H433.906V51.632H461.81C467.101 51.632 470.642 50.352 472.434 47.792C474.226 45.232 475.122 41.6053 475.122 36.912V27.952C475.122 24.0267 474.013 20.8267 471.794 18.352C469.661 15.8773 466.333 14.64 461.81 14.64ZM447.73 24.88H457.33C459.549 24.88 461.042 25.4773 461.81 26.672C462.578 27.7813 462.962 29.1893 462.962 30.896V35.248C462.962 36.9547 462.578 38.4053 461.81 39.6C461.042 40.7093 459.549 41.264 457.33 41.264H447.73V24.88ZM433.906 82.48H432.626V13.36H461.81C466.759 13.36 470.429 14.768 472.818 17.584C475.207 20.3147 476.402 23.7707 476.402 27.952V36.784C476.402 40.7093 475.89 43.952 474.866 46.512C473.842 48.9867 471.794 50.6933 468.722 51.632H470.13C475.335 51.632 479.218 52.8267 481.778 55.216C484.338 57.52 485.618 60.8907 485.618 65.328V82.48H484.338V65.328C484.338 61.1467 483.186 58.032 480.882 55.984C478.578 53.8507 474.994 52.784 470.13 52.784H433.906V82.48ZM443.122 94C444.743 94 445.895 93.6587 446.578 92.976C447.346 92.208 447.73 91.0133 447.73 89.392V64.304H465.65C467.442 64.304 468.679 64.7733 469.362 65.712C470.13 66.5653 470.514 67.9307 470.514 69.808V89.392C470.514 91.0133 470.855 92.208 471.538 92.976C472.306 93.6587 473.501 94 475.122 94H494.962C496.583 94 497.735 93.6587 498.418 92.976C499.186 92.208 499.57 91.0133 499.57 89.392V62.256C499.57 56.88 498.119 52.5707 495.218 49.328C492.402 46.0853 488.69 44.208 484.082 43.696C486.727 42.5867 488.562 40.7947 489.586 38.32C490.695 35.76 491.25 32.688 491.25 29.104V23.216C491.25 16.9013 489.415 11.7813 485.746 7.856C482.162 3.84533 475.591 1.84 466.034 1.84H423.41C421.789 1.84 420.594 2.224 419.826 2.992C419.143 3.67466 418.802 4.82667 418.802 6.448V89.392C418.802 91.0133 419.143 92.208 419.826 92.976C420.594 93.6587 421.789 94 423.41 94H443.122ZM447.218 94.128L430.578 107.952C430.237 108.293 429.682 108.592 428.914 108.848C428.231 109.104 427.463 109.232 426.61 109.232H406.898C404.85 109.232 403.357 108.763 402.418 107.824C401.479 106.885 401.01 105.392 401.01 103.344V20.4C401.01 19.2907 401.138 18.352 401.394 17.584C401.735 16.816 402.205 16.176 402.802 15.664L419.314 1.712C419.741 1.37066 420.295 1.11466 420.978 0.943993C421.746 0.687996 422.557 0.559998 423.41 0.559998H466.034C476.189 0.559998 483.143 2.69333 486.898 6.96C490.653 11.1413 492.53 16.56 492.53 23.216V29.104C492.53 32.2613 492.146 35.0347 491.378 37.424C490.61 39.728 489.373 41.6053 487.666 43.056H487.538C491.549 44.1653 494.749 46.384 497.138 49.712C499.613 53.04 500.85 57.2213 500.85 62.256V89.392C500.85 90.5013 500.679 91.44 500.338 92.208C500.082 92.976 499.655 93.616 499.058 94.128L482.418 107.952C482.077 108.293 481.522 108.592 480.754 108.848C480.071 109.104 479.303 109.232 478.45 109.232H458.61C456.562 109.232 455.069 108.763 454.13 107.824C453.191 106.885 452.722 105.392 452.722 103.344V83.76C452.722 82.3947 452.466 81.3707 451.954 80.688C451.442 79.92 450.503 79.536 449.138 79.536H449.01V89.392C449.01 90.5013 448.839 91.44 448.498 92.208C448.242 92.976 447.815 93.616 447.218 94.128ZM567.253 109.232H512.725C510.677 109.232 509.184 108.763 508.245 107.824C507.306 106.885 506.837 105.392 506.837 103.344V88.112C506.837 87.0027 506.965 86.064 507.221 85.296C507.562 84.528 508.032 83.888 508.629 83.376L524.117 70.32V41.776H512.725C510.677 41.776 509.184 41.3067 508.245 40.368C507.306 39.4293 506.837 37.936 506.837 35.888V20.4C506.837 19.2907 506.965 18.352 507.221 17.584C507.562 16.816 508.032 16.176 508.629 15.664L525.141 1.712C525.568 1.37066 526.122 1.11466 526.805 0.943993C527.573 0.687996 528.384 0.559998 529.237 0.559998H583.765C585.813 0.559998 587.306 1.02933 588.245 1.96799C589.184 2.90666 589.653 4.4 589.653 6.448V21.936C589.653 23.0453 589.482 23.984 589.141 24.752C588.885 25.52 588.458 26.16 587.861 26.672L572.629 39.472V68.272H583.765C585.813 68.272 587.306 68.7413 588.245 69.68C589.184 70.6187 589.653 72.112 589.653 74.16V89.392C589.653 90.5013 589.482 91.44 589.141 92.208C588.885 92.976 588.458 93.616 587.861 94.128L571.221 107.952C570.88 108.293 570.325 108.592 569.557 108.848C568.874 109.104 568.106 109.232 567.253 109.232ZM529.237 94H583.765C585.386 94 586.538 93.6587 587.221 92.976C587.989 92.208 588.373 91.0133 588.373 89.392V74.16C588.373 72.5387 587.989 71.3867 587.221 70.704C586.538 69.936 585.386 69.552 583.765 69.552H571.349V26.544H583.765C585.386 26.544 586.538 26.2027 587.221 25.52C587.989 24.752 588.373 23.5573 588.373 21.936V6.448C588.373 4.82667 587.989 3.67466 587.221 2.992C586.538 2.224 585.386 1.84 583.765 1.84H529.237C527.616 1.84 526.421 2.224 525.653 2.992C524.97 3.67466 524.629 4.82667 524.629 6.448V21.936C524.629 23.5573 524.97 24.752 525.653 25.52C526.421 26.2027 527.616 26.544 529.237 26.544H541.909V69.552H529.237C527.616 69.552 526.421 69.936 525.653 70.704C524.97 71.3867 524.629 72.5387 524.629 74.16V89.392C524.629 91.0133 524.97 92.208 525.653 92.976C526.421 93.6587 527.616 94 529.237 94ZM576.853 82.48H536.149V81.2H555.989V14.64H536.149V13.36H576.853V14.64H557.269V81.2H576.853V82.48ZM664.415 109.232H605.023C602.975 109.232 601.482 108.763 600.543 107.824C599.604 106.885 599.135 105.392 599.135 103.344V20.4C599.135 19.2907 599.263 18.352 599.519 17.584C599.86 16.816 600.33 16.176 600.927 15.664L617.439 1.712C617.866 1.37066 618.42 1.11466 619.103 0.943993C619.871 0.687996 620.682 0.559998 621.535 0.559998H680.927C682.975 0.559998 684.468 1.02933 685.407 1.96799C686.346 2.90666 686.815 4.4 686.815 6.448V21.424C686.815 22.5333 686.644 23.472 686.303 24.24C686.047 25.008 685.62 25.648 685.023 26.16L674.015 35.248C674.868 35.6747 675.466 36.3147 675.807 37.168C676.234 38.0213 676.447 39.1307 676.447 40.496V54.192C676.447 55.3013 676.276 56.24 675.935 57.008C675.679 57.776 675.252 58.416 674.655 58.928L663.263 68.528H680.927C682.975 68.528 684.468 68.9973 685.407 69.936C686.346 70.8747 686.815 72.368 686.815 74.416V89.392C686.815 90.5013 686.644 91.44 686.303 92.208C686.047 92.976 685.62 93.616 685.023 94.128L668.383 107.952C668.042 108.293 667.487 108.592 666.719 108.848C666.036 109.104 665.268 109.232 664.415 109.232ZM680.927 94C682.548 94 683.7 93.6587 684.383 92.976C685.151 92.208 685.535 91.0133 685.535 89.392V74.416C685.535 72.7947 685.151 71.6427 684.383 70.96C683.7 70.192 682.548 69.808 680.927 69.808H645.599V58.8H670.559C672.18 58.8 673.332 58.4587 674.015 57.776C674.783 57.008 675.167 55.8133 675.167 54.192V40.496C675.167 38.8747 674.783 37.7227 674.015 37.04C673.332 36.272 672.18 35.888 670.559 35.888H645.599V26.032H680.927C682.548 26.032 683.7 25.6907 684.383 25.008C685.151 24.24 685.535 23.0453 685.535 21.424V6.448C685.535 4.82667 685.151 3.67466 684.383 2.992C683.7 2.224 682.548 1.84 680.927 1.84H621.535C619.914 1.84 618.719 2.224 617.951 2.992C617.268 3.67466 616.927 4.82667 616.927 6.448V89.392C616.927 91.0133 617.268 92.208 617.951 92.976C618.719 93.6587 619.914 94 621.535 94H680.927ZM674.015 81.2V82.48H630.879V13.36H674.015V14.64H632.159V46.768H663.647V48.048H632.159V81.2H674.015ZM730.323 14.384L777.427 67.376V13.36H778.707V82.48H777.427V69.296L729.043 15.024C728.958 14.9387 728.83 14.8533 728.659 14.768C728.574 14.6827 728.488 14.64 728.403 14.64C728.318 14.64 728.232 14.6827 728.147 14.768C728.147 14.8533 728.147 14.9387 728.147 15.024V82.48H726.867V14.768C726.867 14.256 727.038 13.872 727.379 13.616C727.72 13.36 728.062 13.232 728.403 13.232C728.744 13.232 729.043 13.3173 729.299 13.488C729.555 13.6587 729.896 13.9573 730.323 14.384ZM737.235 94C738.856 94 740.008 93.6587 740.691 92.976C741.459 92.208 741.843 91.0133 741.843 89.392V47.152L763.731 73.648V89.392C763.731 91.0133 764.072 92.208 764.755 92.976C765.523 93.6587 766.718 94 768.339 94H787.539C789.16 94 790.312 93.6587 790.995 92.976C791.763 92.208 792.147 91.0133 792.147 89.392V6.448C792.147 4.82667 791.763 3.67466 790.995 2.992C790.312 2.224 789.16 1.84 787.539 1.84H768.339C766.718 1.84 765.523 2.224 764.755 2.992C764.072 3.67466 763.731 4.82667 763.731 6.448V33.712L738.899 5.296C737.79 4.016 736.638 3.12 735.443 2.60799C734.334 2.096 732.968 1.84 731.347 1.84H718.035C716.414 1.84 715.219 2.224 714.451 2.992C713.768 3.67466 713.427 4.82667 713.427 6.448V89.392C713.427 91.0133 713.768 92.208 714.451 92.976C715.219 93.6587 716.414 94 718.035 94H737.235ZM741.331 94.128L724.691 107.952C724.35 108.293 723.795 108.592 723.027 108.848C722.344 109.104 721.576 109.232 720.723 109.232H701.523C699.475 109.232 697.982 108.763 697.043 107.824C696.104 106.885 695.635 105.392 695.635 103.344V20.4C695.635 19.2907 695.763 18.352 696.019 17.584C696.36 16.816 696.83 16.176 697.427 15.664L713.939 1.712C714.366 1.37066 714.92 1.11466 715.603 0.943993C716.371 0.687996 717.182 0.559998 718.035 0.559998H731.347C733.224 0.559998 734.803 0.858663 736.083 1.45599C737.363 2.05333 738.643 3.03466 739.923 4.39999L748.755 14.64L764.243 1.712C764.67 1.37066 765.224 1.11466 765.907 0.943993C766.675 0.687996 767.486 0.559998 768.339 0.559998H787.539C789.587 0.559998 791.08 1.02933 792.019 1.96799C792.958 2.90666 793.427 4.4 793.427 6.448V89.392C793.427 90.5013 793.256 91.44 792.915 92.208C792.659 92.976 792.232 93.616 791.635 94.128L774.995 107.952C774.654 108.293 774.099 108.592 773.331 108.848C772.648 109.104 771.88 109.232 771.027 109.232H751.827C749.779 109.232 748.286 108.763 747.347 107.824C746.408 106.885 745.939 105.392 745.939 103.344V88.112L743.123 84.656V89.392C743.123 90.5013 742.952 91.44 742.611 92.208C742.355 92.976 741.928 93.616 741.331 94.128ZM867.352 109.232H836.12C824.941 109.232 816.664 106.331 811.288 100.528C805.997 94.7253 803.352 87.216 803.352 78V42.032C803.352 37.3387 804.035 33.2853 805.4 29.872C806.765 26.3733 808.771 23.472 811.416 21.168L828.056 7.216C830.701 4.99733 834.072 3.33333 838.168 2.224C842.264 1.11466 847.085 0.559998 852.632 0.559998H883.864C885.912 0.559998 887.405 1.02933 888.344 1.96799C889.283 2.90666 889.752 4.4 889.752 6.448V21.936C889.752 23.0453 889.581 23.984 889.24 24.752C888.984 25.52 888.557 26.16 887.96 26.672L871.32 40.496C870.979 40.8373 870.424 41.136 869.656 41.392C868.973 41.648 868.205 41.776 867.352 41.776H851.608V63.408C851.608 65.2 852.163 66.48 853.272 67.248C854.381 67.9307 856.003 68.272 858.136 68.272H883.864C885.912 68.272 887.405 68.7413 888.344 69.68C889.283 70.6187 889.752 72.112 889.752 74.16V89.392C889.752 90.5013 889.581 91.44 889.24 92.208C888.984 92.976 888.557 93.616 887.96 94.128L871.32 107.952C870.979 108.293 870.424 108.592 869.656 108.848C868.973 109.104 868.205 109.232 867.352 109.232ZM883.864 94C885.485 94 886.637 93.6587 887.32 92.976C888.088 92.208 888.472 91.0133 888.472 89.392V74.16C888.472 72.5387 888.088 71.3867 887.32 70.704C886.637 69.936 885.485 69.552 883.864 69.552H858.136C855.491 69.552 853.528 69.0827 852.248 68.144C850.968 67.12 850.328 65.5413 850.328 63.408V32.944C850.328 30.8107 850.968 29.232 852.248 28.208C853.528 27.0987 855.491 26.544 858.136 26.544H883.864C885.485 26.544 886.637 26.2027 887.32 25.52C888.088 24.752 888.472 23.5573 888.472 21.936V6.448C888.472 4.82667 888.088 3.67466 887.32 2.992C886.637 2.224 885.485 1.84 883.864 1.84H852.632C841.965 1.84 834.029 4.016 828.824 8.368C823.704 12.6347 821.144 19.2053 821.144 28.08V67.888C821.144 76.7627 823.704 83.3333 828.824 87.6C834.029 91.8667 841.965 94 852.632 94H883.864ZM876.824 81.2V82.48H855.448C847.171 82.48 841.667 81.2 838.936 78.64C836.291 76.08 834.968 71.856 834.968 65.968V30.128C834.968 24.0693 836.333 19.76 839.064 17.2C841.795 14.64 847.256 13.36 855.448 13.36H876.824V14.64H855.448C847.939 14.64 842.861 15.8347 840.216 18.224C837.571 20.528 836.248 24.496 836.248 30.128V65.968C836.248 71.5147 837.528 75.44 840.088 77.744C842.648 80.048 847.768 81.2 855.448 81.2H876.824ZM963.165 109.232H903.773C901.725 109.232 900.232 108.763 899.293 107.824C898.354 106.885 897.885 105.392 897.885 103.344V20.4C897.885 19.2907 898.013 18.352 898.269 17.584C898.61 16.816 899.08 16.176 899.677 15.664L916.189 1.712C916.616 1.37066 917.17 1.11466 917.853 0.943993C918.621 0.687996 919.432 0.559998 920.285 0.559998H979.677C981.725 0.559998 983.218 1.02933 984.157 1.96799C985.096 2.90666 985.565 4.4 985.565 6.448V21.424C985.565 22.5333 985.394 23.472 985.053 24.24C984.797 25.008 984.37 25.648 983.773 26.16L972.765 35.248C973.618 35.6747 974.216 36.3147 974.557 37.168C974.984 38.0213 975.197 39.1307 975.197 40.496V54.192C975.197 55.3013 975.026 56.24 974.685 57.008C974.429 57.776 974.002 58.416 973.405 58.928L962.013 68.528H979.677C981.725 68.528 983.218 68.9973 984.157 69.936C985.096 70.8747 985.565 72.368 985.565 74.416V89.392C985.565 90.5013 985.394 91.44 985.053 92.208C984.797 92.976 984.37 93.616 983.773 94.128L967.133 107.952C966.792 108.293 966.237 108.592 965.469 108.848C964.786 109.104 964.018 109.232 963.165 109.232ZM979.677 94C981.298 94 982.45 93.6587 983.133 92.976C983.901 92.208 984.285 91.0133 984.285 89.392V74.416C984.285 72.7947 983.901 71.6427 983.133 70.96C982.45 70.192 981.298 69.808 979.677 69.808H944.349V58.8H969.309C970.93 58.8 972.082 58.4587 972.765 57.776C973.533 57.008 973.917 55.8133 973.917 54.192V40.496C973.917 38.8747 973.533 37.7227 972.765 37.04C972.082 36.272 970.93 35.888 969.309 35.888H944.349V26.032H979.677C981.298 26.032 982.45 25.6907 983.133 25.008C983.901 24.24 984.285 23.0453 984.285 21.424V6.448C984.285 4.82667 983.901 3.67466 983.133 2.992C982.45 2.224 981.298 1.84 979.677 1.84H920.285C918.664 1.84 917.469 2.224 916.701 2.992C916.018 3.67466 915.677 4.82667 915.677 6.448V89.392C915.677 91.0133 916.018 92.208 916.701 92.976C917.469 93.6587 918.664 94 920.285 94H979.677ZM972.765 81.2V82.48H929.629V13.36H972.765V14.64H930.909V46.768H962.397V48.048H930.909V81.2H972.765Z" fill="black"/>
</svg>
