<svg width="223" height="32" viewBox="0 0 223 32" fill="none" xmlns="http://www.w3.org/2000/svg">
<path d="M7.856 31.284H2.276C1.7 31.284 1.28 31.152 1.016 30.888C0.752 30.624 0.62 30.204 0.62 29.628V6.3C0.62 5.988 0.656 5.724 0.728 5.508C0.824 5.292 0.956 5.112 1.124 4.968L5.768 1.044C5.888 0.947999 6.044 0.875999 6.236 0.827998C6.452 0.755999 6.68 0.719999 6.92 0.719999H17.936C19.64 0.719999 21.068 0.899999 22.22 1.26C23.372 1.62 24.284 2.124 24.956 2.772C25.628 3.42 26.096 4.2 26.36 5.112C26.648 6.024 26.792 7.02 26.792 8.1V12.708C26.792 13.86 26.624 14.916 26.288 15.876C25.976 16.812 25.424 17.616 24.632 18.288L19.952 22.176C19.352 22.68 18.572 23.1 17.612 23.436C16.676 23.748 15.524 23.928 14.156 23.976V25.704C14.156 26.016 14.108 26.28 14.012 26.496C13.94 26.712 13.82 26.892 13.652 27.036L8.972 30.924C8.876 31.02 8.72 31.104 8.504 31.176C8.312 31.248 8.096 31.284 7.856 31.284ZM12.5 27C12.956 27 13.28 26.904 13.472 26.712C13.688 26.496 13.796 26.16 13.796 25.704V19.728H17.936C21.2 19.728 23.432 19.08 24.632 17.784C25.832 16.488 26.432 14.796 26.432 12.708V8.1C26.432 6.012 25.832 4.32 24.632 3.024C23.432 1.728 21.2 1.08 17.936 1.08H6.92C6.464 1.08 6.128 1.188 5.912 1.404C5.72 1.596 5.624 1.92 5.624 2.376V25.704C5.624 26.16 5.72 26.496 5.912 26.712C6.128 26.904 6.464 27 6.92 27H12.5ZM17.432 16.668H10.016V23.76H9.656V4.32H17.432C18.56 4.32 19.472 4.452 20.168 4.716C20.888 4.956 21.44 5.292 21.824 5.724C22.208 6.156 22.472 6.672 22.616 7.272C22.76 7.872 22.832 8.52 22.832 9.216V11.88C22.832 12.576 22.76 13.224 22.616 13.824C22.472 14.4 22.208 14.904 21.824 15.336C21.44 15.744 20.888 16.068 20.168 16.308C19.472 16.548 18.56 16.668 17.432 16.668ZM10.016 16.308H17.432C18.488 16.308 19.34 16.2 19.988 15.984C20.66 15.768 21.176 15.468 21.536 15.084C21.896 14.676 22.136 14.208 22.256 13.68C22.4 13.128 22.472 12.528 22.472 11.88V9.216C22.472 8.568 22.4 7.968 22.256 7.416C22.136 6.864 21.896 6.384 21.536 5.976C21.176 5.568 20.66 5.256 19.988 5.04C19.34 4.8 18.488 4.68 17.432 4.68H10.016V16.308ZM13.724 7.812H16.964C17.66 7.812 18.116 7.992 18.332 8.352C18.548 8.712 18.656 9.12 18.656 9.576V11.484C18.656 11.94 18.548 12.348 18.332 12.708C18.116 13.068 17.66 13.248 16.964 13.248H13.724V7.812ZM45.8802 4.68H38.0322V15.084H45.8802C47.3682 15.084 48.3642 14.724 48.8682 14.004C49.3722 13.284 49.6242 12.264 49.6242 10.944V8.424C49.6242 7.32 49.3122 6.42 48.6882 5.724C48.0882 5.028 47.1522 4.68 45.8802 4.68ZM41.9202 7.56H44.6202C45.2442 7.56 45.6642 7.728 45.8802 8.064C46.0962 8.376 46.2042 8.772 46.2042 9.252V10.476C46.2042 10.956 46.0962 11.364 45.8802 11.7C45.6642 12.012 45.2442 12.168 44.6202 12.168H41.9202V7.56ZM38.0322 23.76H37.6722V4.32H45.8802C47.2722 4.32 48.3042 4.716 48.9762 5.508C49.6482 6.276 49.9842 7.248 49.9842 8.424V10.908C49.9842 12.012 49.8402 12.924 49.5522 13.644C49.2642 14.34 48.6882 14.82 47.8242 15.084H48.2202C49.6842 15.084 50.7762 15.42 51.4962 16.092C52.2162 16.74 52.5762 17.688 52.5762 18.936V23.76H52.2162V18.936C52.2162 17.76 51.8922 16.884 51.2442 16.308C50.5962 15.708 49.5882 15.408 48.2202 15.408H38.0322V23.76ZM40.6242 27C41.0802 27 41.4042 26.904 41.5962 26.712C41.8122 26.496 41.9202 26.16 41.9202 25.704V18.648H46.9602C47.4642 18.648 47.8122 18.78 48.0042 19.044C48.2202 19.284 48.3282 19.668 48.3282 20.196V25.704C48.3282 26.16 48.4242 26.496 48.6162 26.712C48.8322 26.904 49.1682 27 49.6242 27H55.2042C55.6602 27 55.9842 26.904 56.1762 26.712C56.3922 26.496 56.5002 26.16 56.5002 25.704V18.072C56.5002 16.56 56.0922 15.348 55.2762 14.436C54.4842 13.524 53.4402 12.996 52.1442 12.852C52.8882 12.54 53.4042 12.036 53.6922 11.34C54.0042 10.62 54.1602 9.756 54.1602 8.748V7.092C54.1602 5.316 53.6442 3.876 52.6122 2.772C51.6042 1.644 49.7562 1.08 47.0682 1.08H35.0802C34.6242 1.08 34.2882 1.188 34.0722 1.404C33.8802 1.596 33.7842 1.92 33.7842 2.376V25.704C33.7842 26.16 33.8802 26.496 34.0722 26.712C34.2882 26.904 34.6242 27 35.0802 27H40.6242ZM41.7762 27.036L37.0962 30.924C37.0002 31.02 36.8442 31.104 36.6282 31.176C36.4362 31.248 36.2202 31.284 35.9802 31.284H30.4362C29.8602 31.284 29.4402 31.152 29.1762 30.888C28.9122 30.624 28.7802 30.204 28.7802 29.628V6.3C28.7802 5.988 28.8162 5.724 28.8882 5.508C28.9842 5.292 29.1162 5.112 29.2842 4.968L33.9282 1.044C34.0482 0.947999 34.2042 0.875999 34.3962 0.827998C34.6122 0.755999 34.8402 0.719999 35.0802 0.719999H47.0682C49.9242 0.719999 51.8802 1.32 52.9362 2.52C53.9922 3.696 54.5202 5.22 54.5202 7.092V8.748C54.5202 9.636 54.4122 10.416 54.1962 11.088C53.9802 11.736 53.6322 12.264 53.1522 12.672H53.1162C54.2442 12.984 55.1442 13.608 55.8162 14.544C56.5122 15.48 56.8602 16.656 56.8602 18.072V25.704C56.8602 26.016 56.8122 26.28 56.7162 26.496C56.6442 26.712 56.5242 26.892 56.3562 27.036L51.6762 30.924C51.5802 31.02 51.4242 31.104 51.2082 31.176C51.0162 31.248 50.8002 31.284 50.5602 31.284H44.9802C44.4042 31.284 43.9842 31.152 43.7202 30.888C43.4562 30.624 43.3242 30.204 43.3242 29.628V24.12C43.3242 23.736 43.2522 23.448 43.1082 23.256C42.9642 23.04 42.7002 22.932 42.3162 22.932H42.2802V25.704C42.2802 26.016 42.2322 26.28 42.1362 26.496C42.0642 26.712 41.9442 26.892 41.7762 27.036ZM79.4642 29.556C78.6242 30.276 77.4482 30.828 75.9362 31.212C74.4242 31.62 72.4802 31.824 70.1042 31.824C67.7522 31.824 65.8202 31.572 64.3082 31.068C62.8202 30.588 61.6442 29.94 60.7802 29.124C59.9402 28.308 59.3522 27.372 59.0162 26.316C58.7042 25.26 58.5482 24.168 58.5482 23.04V11.844C58.5482 10.74 58.7042 9.72 59.0162 8.784C59.3282 7.824 59.8922 7.008 60.7082 6.336L65.3882 2.448C66.2282 1.728 67.3922 1.176 68.8802 0.791998C70.3922 0.383998 72.3482 0.179998 74.7482 0.179998C77.1002 0.179998 79.0202 0.371998 80.5082 0.755999C82.0202 1.14 83.1962 1.68 84.0362 2.376C84.9002 3.048 85.4882 3.864 85.8002 4.824C86.1122 5.76 86.2682 6.792 86.2682 7.92V20.196C86.2682 21.3 86.1122 22.32 85.8002 23.256C85.4882 24.192 84.9242 24.996 84.1082 25.668L79.4642 29.556ZM85.9082 20.196V7.92C85.9082 6.816 85.7402 5.82 85.4042 4.932C85.0922 4.02 84.5162 3.24 83.6762 2.592C82.8602 1.944 81.7202 1.44 80.2562 1.08C78.8162 0.719999 76.9802 0.539999 74.7482 0.539999C72.5162 0.539999 70.6682 0.719999 69.2042 1.08C67.7402 1.44 66.5882 1.944 65.7482 2.592C64.9322 3.24 64.3562 4.02 64.0202 4.932C63.7082 5.82 63.5522 6.816 63.5522 7.92V20.196C63.5522 21.3 63.7082 22.308 64.0202 23.22C64.3562 24.108 64.9322 24.876 65.7482 25.524C66.5882 26.148 67.7402 26.64 69.2042 27C70.6682 27.36 72.5162 27.54 74.7482 27.54C76.9802 27.54 78.8162 27.36 80.2562 27C81.7202 26.64 82.8602 26.148 83.6762 25.524C84.5162 24.876 85.0922 24.108 85.4042 23.22C85.7402 22.308 85.9082 21.3 85.9082 20.196ZM81.9842 19.368C81.9842 20.808 81.4682 21.984 80.4362 22.896C79.4042 23.784 77.4842 24.228 74.6762 24.228C71.8682 24.228 69.9602 23.784 68.9522 22.896C67.9442 21.984 67.4402 20.808 67.4402 19.368V8.748C67.4402 7.308 67.9442 6.144 68.9522 5.256C69.9602 4.344 71.8682 3.888 74.6762 3.888C77.4842 3.888 79.4042 4.344 80.4362 5.256C81.4682 6.144 81.9842 7.308 81.9842 8.748V19.368ZM67.8002 19.368C67.8002 20.712 68.2802 21.804 69.2402 22.644C70.2002 23.46 72.0122 23.868 74.6762 23.868C77.3402 23.868 79.1642 23.46 80.1482 22.644C81.1322 21.804 81.6242 20.712 81.6242 19.368V8.748C81.6242 7.404 81.1322 6.324 80.1482 5.508C79.1642 4.668 77.3402 4.248 74.6762 4.248C72.0122 4.248 70.2002 4.668 69.2402 5.508C68.2802 6.324 67.8002 7.404 67.8002 8.748V19.368ZM71.7242 18.9V9.216C71.7242 8.76 71.9042 8.376 72.2642 8.064C72.6242 7.728 73.4522 7.56 74.7482 7.56C76.0442 7.56 76.8722 7.728 77.2322 8.064C77.5922 8.376 77.7722 8.76 77.7722 9.216V18.9C77.7722 19.38 77.5922 19.788 77.2322 20.124C76.8722 20.436 76.0442 20.592 74.7482 20.592C73.4522 20.592 72.6242 20.436 72.2642 20.124C71.9042 19.788 71.7242 19.38 71.7242 18.9ZM72.0842 18.9C72.0842 19.14 72.1322 19.356 72.2282 19.548C72.3242 19.716 72.5042 19.86 72.7682 19.98V13.14C72.7682 12.9 72.7202 12.696 72.6242 12.528C72.5282 12.336 72.3482 12.192 72.0842 12.096V18.9ZM98.8651 31.824C96.6811 31.824 94.8811 31.572 93.4651 31.068C92.0731 30.588 90.9691 29.94 90.1531 29.124C89.3611 28.308 88.8091 27.372 88.4971 26.316C88.2091 25.26 88.0651 24.168 88.0651 23.04V18.288C88.0651 17.976 88.1011 17.712 88.1731 17.496C88.2691 17.256 88.3891 17.076 88.5331 16.956L93.2131 13.032C93.3331 12.936 93.4891 12.864 93.6811 12.816C93.8731 12.744 94.1011 12.708 94.3651 12.708H99.5851C99.8491 12.708 100.077 12.744 100.269 12.816C100.485 12.864 100.665 12.948 100.809 13.068V6.3C100.809 5.988 100.845 5.724 100.917 5.508C101.013 5.292 101.145 5.112 101.313 4.968L105.957 1.044C106.077 0.947999 106.233 0.875999 106.425 0.827998C106.641 0.755999 106.869 0.719999 107.109 0.719999H112.761C113.337 0.719999 113.757 0.851999 114.021 1.116C114.285 1.38 114.417 1.8 114.417 2.376V20.196C114.417 21.324 114.249 22.368 113.913 23.328C113.601 24.264 113.037 25.068 112.221 25.74L107.577 29.664C106.761 30.336 105.657 30.864 104.265 31.248C102.873 31.632 101.073 31.824 98.8651 31.824ZM114.057 20.196V2.376C114.057 1.92 113.949 1.596 113.733 1.404C113.541 1.188 113.217 1.08 112.761 1.08H107.109C106.653 1.08 106.317 1.188 106.101 1.404C105.909 1.596 105.813 1.92 105.813 2.376V18.756C105.813 19.236 105.669 19.644 105.381 19.98C105.117 20.292 104.469 20.448 103.437 20.448C102.333 20.448 101.625 20.292 101.313 19.98C101.025 19.644 100.881 19.236 100.881 18.756V14.364C100.881 13.908 100.773 13.584 100.557 13.392C100.365 13.176 100.041 13.068 99.5851 13.068H94.3651C93.9091 13.068 93.5731 13.176 93.3571 13.392C93.1651 13.584 93.0691 13.908 93.0691 14.364V20.196C93.0691 21.3 93.2131 22.308 93.5011 23.22C93.8131 24.108 94.3531 24.876 95.1211 25.524C95.9131 26.148 96.9811 26.64 98.3251 27C99.6931 27.36 101.421 27.54 103.509 27.54C105.621 27.54 107.361 27.36 108.729 27C110.097 26.64 111.165 26.148 111.933 25.524C112.725 24.876 113.277 24.108 113.589 23.22C113.901 22.308 114.057 21.3 114.057 20.196ZM109.737 4.32H110.097V19.332C110.097 20.748 109.641 21.912 108.729 22.824C107.841 23.736 106.125 24.192 103.581 24.192C102.237 24.192 101.121 24.072 100.233 23.832C99.3691 23.592 98.6851 23.268 98.1811 22.86C97.6771 22.428 97.3171 21.912 97.1011 21.312C96.9091 20.712 96.8131 20.052 96.8131 19.332V16.488H97.1731V19.332C97.1731 20.7 97.6171 21.792 98.5051 22.608C99.4171 23.424 101.109 23.832 103.581 23.832C105.957 23.832 107.577 23.424 108.441 22.608C109.305 21.768 109.737 20.676 109.737 19.332V4.32ZM135.804 31.284H119.1C118.524 31.284 118.104 31.152 117.84 30.888C117.576 30.624 117.444 30.204 117.444 29.628V6.3C117.444 5.988 117.48 5.724 117.552 5.508C117.648 5.292 117.78 5.112 117.948 4.968L122.592 1.044C122.712 0.947999 122.868 0.875999 123.06 0.827998C123.276 0.755999 123.504 0.719999 123.744 0.719999H140.448C141.024 0.719999 141.444 0.851999 141.708 1.116C141.972 1.38 142.104 1.8 142.104 2.376V6.588C142.104 6.9 142.056 7.164 141.96 7.38C141.888 7.596 141.768 7.776 141.6 7.92L138.504 10.476C138.744 10.596 138.912 10.776 139.008 11.016C139.128 11.256 139.188 11.568 139.188 11.952V15.804C139.188 16.116 139.14 16.38 139.044 16.596C138.972 16.812 138.852 16.992 138.684 17.136L135.48 19.836H140.448C141.024 19.836 141.444 19.968 141.708 20.232C141.972 20.496 142.104 20.916 142.104 21.492V25.704C142.104 26.016 142.056 26.28 141.96 26.496C141.888 26.712 141.768 26.892 141.6 27.036L136.92 30.924C136.824 31.02 136.668 31.104 136.452 31.176C136.26 31.248 136.044 31.284 135.804 31.284ZM140.448 27C140.904 27 141.228 26.904 141.42 26.712C141.636 26.496 141.744 26.16 141.744 25.704V21.492C141.744 21.036 141.636 20.712 141.42 20.52C141.228 20.304 140.904 20.196 140.448 20.196H130.512V17.1H137.532C137.988 17.1 138.312 17.004 138.504 16.812C138.72 16.596 138.828 16.26 138.828 15.804V11.952C138.828 11.496 138.72 11.172 138.504 10.98C138.312 10.764 137.988 10.656 137.532 10.656H130.512V7.884H140.448C140.904 7.884 141.228 7.788 141.42 7.596C141.636 7.38 141.744 7.044 141.744 6.588V2.376C141.744 1.92 141.636 1.596 141.42 1.404C141.228 1.188 140.904 1.08 140.448 1.08H123.744C123.288 1.08 122.952 1.188 122.736 1.404C122.544 1.596 122.448 1.92 122.448 2.376V25.704C122.448 26.16 122.544 26.496 122.736 26.712C122.952 26.904 123.288 27 123.744 27H140.448ZM138.504 23.4V23.76H126.372V4.32H138.504V4.68H126.732V13.716H135.588V14.076H126.732V23.4H138.504ZM162.013 31.284H153.229C150.085 31.284 147.757 30.468 146.245 28.836C144.757 27.204 144.013 25.092 144.013 22.5V12.384C144.013 11.064 144.205 9.924 144.589 8.964C144.973 7.98 145.537 7.164 146.281 6.516L150.961 2.592C151.705 1.968 152.653 1.5 153.805 1.188C154.957 0.875999 156.313 0.719999 157.873 0.719999H166.657C167.233 0.719999 167.653 0.851999 167.917 1.116C168.181 1.38 168.313 1.8 168.313 2.376V6.732C168.313 7.044 168.265 7.308 168.169 7.524C168.097 7.74 167.977 7.92 167.809 8.064L163.129 11.952C163.033 12.048 162.877 12.132 162.661 12.204C162.469 12.276 162.253 12.312 162.013 12.312H157.585V18.396C157.585 18.9 157.741 19.26 158.053 19.476C158.365 19.668 158.821 19.764 159.421 19.764H166.657C167.233 19.764 167.653 19.896 167.917 20.16C168.181 20.424 168.313 20.844 168.313 21.42V25.704C168.313 26.016 168.265 26.28 168.169 26.496C168.097 26.712 167.977 26.892 167.809 27.036L163.129 30.924C163.033 31.02 162.877 31.104 162.661 31.176C162.469 31.248 162.253 31.284 162.013 31.284ZM166.657 27C167.113 27 167.437 26.904 167.629 26.712C167.845 26.496 167.953 26.16 167.953 25.704V21.42C167.953 20.964 167.845 20.64 167.629 20.448C167.437 20.232 167.113 20.124 166.657 20.124H159.421C158.677 20.124 158.125 19.992 157.765 19.728C157.405 19.44 157.225 18.996 157.225 18.396V9.828C157.225 9.228 157.405 8.784 157.765 8.496C158.125 8.184 158.677 8.028 159.421 8.028H166.657C167.113 8.028 167.437 7.932 167.629 7.74C167.845 7.524 167.953 7.188 167.953 6.732V2.376C167.953 1.92 167.845 1.596 167.629 1.404C167.437 1.188 167.113 1.08 166.657 1.08H157.873C154.873 1.08 152.641 1.692 151.177 2.916C149.737 4.116 149.017 5.964 149.017 8.46V19.656C149.017 22.152 149.737 24 151.177 25.2C152.641 26.4 154.873 27 157.873 27H166.657ZM164.677 23.4V23.76H158.665C156.337 23.76 154.789 23.4 154.021 22.68C153.277 21.96 152.905 20.772 152.905 19.116V9.036C152.905 7.332 153.289 6.12 154.057 5.4C154.825 4.68 156.361 4.32 158.665 4.32H164.677V4.68H158.665C156.553 4.68 155.125 5.016 154.381 5.688C153.637 6.336 153.265 7.452 153.265 9.036V19.116C153.265 20.676 153.625 21.78 154.345 22.428C155.065 23.076 156.505 23.4 158.665 23.4H164.677ZM183.2 31.284H177.368C176.792 31.284 176.372 31.152 176.108 30.888C175.844 30.624 175.712 30.204 175.712 29.628V12.312H170.78C170.204 12.312 169.784 12.18 169.52 11.916C169.256 11.652 169.124 11.232 169.124 10.656V6.3C169.124 5.988 169.16 5.724 169.232 5.508C169.328 5.292 169.46 5.112 169.628 4.968L174.272 1.044C174.392 0.947999 174.548 0.875999 174.74 0.827998C174.956 0.755999 175.184 0.719999 175.424 0.719999H194.432C195.008 0.719999 195.428 0.851999 195.692 1.116C195.956 1.38 196.088 1.8 196.088 2.376V6.732C196.088 7.044 196.04 7.308 195.944 7.524C195.872 7.74 195.752 7.92 195.584 8.064L190.904 11.952C190.808 12.048 190.652 12.132 190.436 12.204C190.244 12.276 190.028 12.312 189.788 12.312H189.5V25.704C189.5 26.016 189.452 26.28 189.356 26.496C189.284 26.712 189.164 26.892 188.996 27.036L184.316 30.924C184.22 31.02 184.064 31.104 183.848 31.176C183.656 31.248 183.44 31.284 183.2 31.284ZM187.844 27C188.3 27 188.624 26.904 188.816 26.712C189.032 26.496 189.14 26.16 189.14 25.704V8.028H194.432C194.888 8.028 195.212 7.932 195.404 7.74C195.62 7.524 195.728 7.188 195.728 6.732V2.376C195.728 1.92 195.62 1.596 195.404 1.404C195.212 1.188 194.888 1.08 194.432 1.08H175.424C174.968 1.08 174.632 1.188 174.416 1.404C174.224 1.596 174.128 1.92 174.128 2.376V6.732C174.128 7.188 174.224 7.524 174.416 7.74C174.632 7.932 174.968 8.028 175.424 8.028H180.716V25.704C180.716 26.16 180.812 26.496 181.004 26.712C181.22 26.904 181.556 27 182.012 27H187.844ZM184.748 23.76V4.68H177.368V4.32H192.488V4.68H185.108V23.76H184.748ZM198.819 31.284C198.243 31.284 197.823 31.152 197.559 30.888C197.295 30.624 197.163 30.204 197.163 29.628V25.416C197.163 25.104 197.199 24.84 197.271 24.624C197.367 24.408 197.499 24.228 197.667 24.084L201.267 21.06C199.995 20.676 198.987 20.028 198.243 19.116C197.523 18.18 197.163 16.848 197.163 15.12V11.34C197.163 10.26 197.343 9.3 197.703 8.46C198.063 7.62 198.579 6.912 199.251 6.336L203.931 2.412C204.579 1.884 205.383 1.476 206.343 1.188C207.303 0.875999 208.395 0.719999 209.619 0.719999H219.699C220.275 0.719999 220.695 0.851999 220.959 1.116C221.223 1.38 221.355 1.8 221.355 2.376V6.66C221.355 6.972 221.307 7.236 221.211 7.452C221.139 7.668 221.019 7.848 220.851 7.992L217.611 10.692C219.123 11.028 220.335 11.664 221.247 12.6C222.183 13.512 222.651 14.94 222.651 16.884V20.664C222.651 21.744 222.471 22.704 222.111 23.544C221.751 24.384 221.223 25.092 220.527 25.668L215.883 29.556C215.211 30.108 214.395 30.528 213.435 30.816C212.475 31.128 211.395 31.284 210.195 31.284H198.819ZM214.839 27C217.143 27 218.955 26.46 220.275 25.38C221.619 24.276 222.291 22.704 222.291 20.664V16.884C222.291 14.868 221.775 13.428 220.743 12.564C219.711 11.7 218.355 11.148 216.675 10.908L211.311 10.188C210.999 10.164 210.759 10.044 210.591 9.828C210.423 9.612 210.339 9.348 210.339 9.036C210.339 8.724 210.423 8.472 210.591 8.28C210.759 8.064 210.999 7.956 211.311 7.956H219.699C220.155 7.956 220.479 7.86 220.671 7.668C220.887 7.452 220.995 7.116 220.995 6.66V2.376C220.995 1.92 220.887 1.596 220.671 1.404C220.479 1.188 220.155 1.08 219.699 1.08H209.619C207.291 1.08 205.467 1.632 204.147 2.736C202.827 3.816 202.167 5.376 202.167 7.416V11.196C202.167 13.212 202.671 14.652 203.679 15.516C204.711 16.38 206.067 16.932 207.747 17.172L213.147 17.928C213.459 17.952 213.687 18.06 213.831 18.252C213.999 18.444 214.083 18.744 214.083 19.152C214.083 19.44 213.999 19.692 213.831 19.908C213.687 20.1 213.459 20.196 213.147 20.196H203.463C203.007 20.196 202.671 20.304 202.455 20.52C202.263 20.712 202.167 21.036 202.167 21.492V25.704C202.167 26.16 202.263 26.496 202.455 26.712C202.671 26.904 203.007 27 203.463 27H214.839ZM217.755 4.32V4.68H209.763C208.755 4.68 207.951 4.956 207.351 5.508C206.751 6.06 206.451 6.756 206.451 7.596V10.548C206.451 11.388 206.619 11.976 206.955 12.312C207.291 12.648 207.735 12.864 208.287 12.96L215.883 14.508C216.603 14.652 217.191 14.964 217.647 15.444C218.127 15.924 218.367 16.788 218.367 18.036V20.124C218.367 21.18 218.007 22.056 217.287 22.752C216.567 23.424 215.595 23.76 214.371 23.76H205.407V23.4H214.371C215.475 23.4 216.351 23.1 216.999 22.5C217.671 21.876 218.007 21.084 218.007 20.124V18.036C218.007 16.908 217.803 16.14 217.395 15.732C217.011 15.3 216.483 15.012 215.811 14.868L208.215 13.32C207.591 13.2 207.075 12.96 206.667 12.6C206.283 12.216 206.091 11.532 206.091 10.548V7.596C206.091 6.636 206.427 5.856 207.099 5.256C207.771 4.632 208.659 4.32 209.763 4.32H217.755Z" fill="#F5F3FF"/>
</svg>
