<svg width="791" height="114" viewBox="0 0 791 114" fill="none" xmlns="http://www.w3.org/2000/svg">
<path d="M26.488 111.232H6.648C4.6 111.232 3.10667 110.763 2.168 109.824C1.22933 108.885 0.76 107.392 0.76 105.344V22.4C0.76 21.2907 0.888 20.352 1.144 19.584C1.48533 18.816 1.95467 18.176 2.552 17.664L19.064 3.712C19.4907 3.37066 20.0453 3.11466 20.728 2.94399C21.496 2.688 22.3067 2.56 23.16 2.56H62.328C68.3867 2.56 73.464 3.2 77.56 4.48C81.656 5.75999 84.8987 7.55199 87.288 9.856C89.6773 12.16 91.3413 14.9333 92.28 18.176C93.304 21.4187 93.816 24.96 93.816 28.8V45.184C93.816 49.28 93.2187 53.0347 92.024 56.448C90.9147 59.776 88.952 62.6347 86.136 65.024L69.496 78.848C67.3627 80.64 64.5893 82.1333 61.176 83.328C57.848 84.4373 53.752 85.0773 48.888 85.248V91.392C48.888 92.5013 48.7173 93.44 48.376 94.208C48.12 94.976 47.6933 95.616 47.096 96.128L30.456 109.952C30.1147 110.293 29.56 110.592 28.792 110.848C28.1093 111.104 27.3413 111.232 26.488 111.232ZM43 96C44.6213 96 45.7733 95.6587 46.456 94.976C47.224 94.208 47.608 93.0133 47.608 91.392V70.144H62.328C73.9333 70.144 81.8693 67.84 86.136 63.232C90.4027 58.624 92.536 52.608 92.536 45.184V28.8C92.536 21.376 90.4027 15.36 86.136 10.752C81.8693 6.144 73.9333 3.84 62.328 3.84H23.16C21.5387 3.84 20.344 4.224 19.576 4.992C18.8933 5.67466 18.552 6.82667 18.552 8.448V91.392C18.552 93.0133 18.8933 94.208 19.576 94.976C20.344 95.6587 21.5387 96 23.16 96H43ZM60.536 59.264H34.168V84.48H32.888V15.36H60.536C64.5467 15.36 67.7893 15.8293 70.264 16.768C72.824 17.6213 74.7867 18.816 76.152 20.352C77.5173 21.888 78.456 23.7227 78.968 25.856C79.48 27.9893 79.736 30.2933 79.736 32.768V42.24C79.736 44.7147 79.48 47.0187 78.968 49.152C78.456 51.2 77.5173 52.992 76.152 54.528C74.7867 55.9787 72.824 57.1307 70.264 57.984C67.7893 58.8373 64.5467 59.264 60.536 59.264ZM34.168 57.984H60.536C64.2907 57.984 67.32 57.6 69.624 56.832C72.0133 56.064 73.848 54.9973 75.128 53.632C76.408 52.1813 77.2613 50.5173 77.688 48.64C78.2 46.6773 78.456 44.544 78.456 42.24V32.768C78.456 30.464 78.2 28.3307 77.688 26.368C77.2613 24.4053 76.408 22.6987 75.128 21.248C73.848 19.7973 72.0133 18.688 69.624 17.92C67.32 17.0667 64.2907 16.64 60.536 16.64H34.168V57.984ZM47.352 27.776H58.872C61.3467 27.776 62.968 28.416 63.736 29.696C64.504 30.976 64.888 32.4267 64.888 34.048V40.832C64.888 42.4533 64.504 43.904 63.736 45.184C62.968 46.464 61.3467 47.104 58.872 47.104H47.352V27.776ZM161.685 16.64H133.781V53.632H161.685C166.976 53.632 170.517 52.352 172.309 49.792C174.101 47.232 174.997 43.6053 174.997 38.912V29.952C174.997 26.0267 173.888 22.8267 171.669 20.352C169.536 17.8773 166.208 16.64 161.685 16.64ZM147.605 26.88H157.205C159.424 26.88 160.917 27.4773 161.685 28.672C162.453 29.7813 162.837 31.1893 162.837 32.896V37.248C162.837 38.9547 162.453 40.4053 161.685 41.6C160.917 42.7093 159.424 43.264 157.205 43.264H147.605V26.88ZM133.781 84.48H132.501V15.36H161.685C166.634 15.36 170.304 16.768 172.693 19.584C175.082 22.3147 176.277 25.7707 176.277 29.952V38.784C176.277 42.7093 175.765 45.952 174.741 48.512C173.717 50.9867 171.669 52.6933 168.597 53.632H170.005C175.21 53.632 179.093 54.8267 181.653 57.216C184.213 59.52 185.493 62.8907 185.493 67.328V84.48H184.213V67.328C184.213 63.1467 183.061 60.032 180.757 57.984C178.453 55.8507 174.869 54.784 170.005 54.784H133.781V84.48ZM142.997 96C144.618 96 145.77 95.6587 146.453 94.976C147.221 94.208 147.605 93.0133 147.605 91.392V66.304H165.525C167.317 66.304 168.554 66.7733 169.237 67.712C170.005 68.5653 170.389 69.9307 170.389 71.808V91.392C170.389 93.0133 170.73 94.208 171.413 94.976C172.181 95.6587 173.376 96 174.997 96H194.837C196.458 96 197.61 95.6587 198.293 94.976C199.061 94.208 199.445 93.0133 199.445 91.392V64.256C199.445 58.88 197.994 54.5707 195.093 51.328C192.277 48.0853 188.565 46.208 183.957 45.696C186.602 44.5867 188.437 42.7947 189.461 40.32C190.57 37.76 191.125 34.688 191.125 31.104V25.216C191.125 18.9013 189.29 13.7813 185.621 9.856C182.037 5.84533 175.466 3.84 165.909 3.84H123.285C121.664 3.84 120.469 4.224 119.701 4.992C119.018 5.67466 118.677 6.82667 118.677 8.448V91.392C118.677 93.0133 119.018 94.208 119.701 94.976C120.469 95.6587 121.664 96 123.285 96H142.997ZM147.093 96.128L130.453 109.952C130.112 110.293 129.557 110.592 128.789 110.848C128.106 111.104 127.338 111.232 126.485 111.232H106.773C104.725 111.232 103.232 110.763 102.293 109.824C101.354 108.885 100.885 107.392 100.885 105.344V22.4C100.885 21.2907 101.013 20.352 101.269 19.584C101.61 18.816 102.08 18.176 102.677 17.664L119.189 3.712C119.616 3.37066 120.17 3.11466 120.853 2.94399C121.621 2.688 122.432 2.56 123.285 2.56H165.909C176.064 2.56 183.018 4.69333 186.773 8.96C190.528 13.1413 192.405 18.56 192.405 25.216V31.104C192.405 34.2613 192.021 37.0347 191.253 39.424C190.485 41.728 189.248 43.6053 187.541 45.056H187.413C191.424 46.1653 194.624 48.384 197.013 51.712C199.488 55.04 200.725 59.2213 200.725 64.256V91.392C200.725 92.5013 200.554 93.44 200.213 94.208C199.957 94.976 199.53 95.616 198.933 96.128L182.293 109.952C181.952 110.293 181.397 110.592 180.629 110.848C179.946 111.104 179.178 111.232 178.325 111.232H158.485C156.437 111.232 154.944 110.763 154.005 109.824C153.066 108.885 152.597 107.392 152.597 105.344V85.76C152.597 84.3947 152.341 83.3707 151.829 82.688C151.317 81.92 150.378 81.536 149.013 81.536H148.885V91.392C148.885 92.5013 148.714 93.44 148.373 94.208C148.117 94.976 147.69 95.616 147.093 96.128ZM281.095 105.088C278.108 107.648 273.927 109.611 268.551 110.976C263.175 112.427 256.263 113.152 247.815 113.152C239.452 113.152 232.583 112.256 227.207 110.464C221.916 108.757 217.735 106.453 214.663 103.552C211.676 100.651 209.586 97.3227 208.391 93.568C207.282 89.8133 206.727 85.9307 206.727 81.92V42.112C206.727 38.1867 207.282 34.56 208.391 31.232C209.5 27.8187 211.506 24.9173 214.407 22.528L231.047 8.70399C234.034 6.144 238.172 4.18133 243.463 2.81599C248.839 1.36533 255.794 0.639992 264.327 0.639992C272.69 0.639992 279.516 1.32266 284.807 2.688C290.183 4.05333 294.364 5.97333 297.351 8.448C300.423 10.8373 302.514 13.7387 303.623 17.152C304.732 20.48 305.287 24.1493 305.287 28.16V71.808C305.287 75.7333 304.732 79.36 303.623 82.688C302.514 86.016 300.508 88.8747 297.607 91.264L281.095 105.088ZM304.007 71.808V28.16C304.007 24.2347 303.41 20.6933 302.215 17.536C301.106 14.2933 299.058 11.52 296.071 9.216C293.17 6.91199 289.116 5.12 283.911 3.84C278.791 2.56 272.263 1.92 264.327 1.92C256.391 1.92 249.82 2.56 244.615 3.84C239.41 5.12 235.314 6.91199 232.327 9.216C229.426 11.52 227.378 14.2933 226.183 17.536C225.074 20.6933 224.519 24.2347 224.519 28.16V71.808C224.519 75.7333 225.074 79.3173 226.183 82.56C227.378 85.7173 229.426 88.448 232.327 90.752C235.314 92.9707 239.41 94.72 244.615 96C249.82 97.28 256.391 97.92 264.327 97.92C272.263 97.92 278.791 97.28 283.911 96C289.116 94.72 293.17 92.9707 296.071 90.752C299.058 88.448 301.106 85.7173 302.215 82.56C303.41 79.3173 304.007 75.7333 304.007 71.808ZM290.055 68.864C290.055 73.984 288.22 78.1653 284.551 81.408C280.882 84.5653 274.055 86.144 264.071 86.144C254.087 86.144 247.303 84.5653 243.719 81.408C240.135 78.1653 238.343 73.984 238.343 68.864V31.104C238.343 25.984 240.135 21.8453 243.719 18.688C247.303 15.4453 254.087 13.824 264.071 13.824C274.055 13.824 280.882 15.4453 284.551 18.688C288.22 21.8453 290.055 25.984 290.055 31.104V68.864ZM239.623 68.864C239.623 73.6427 241.33 77.5253 244.743 80.512C248.156 83.4133 254.599 84.864 264.071 84.864C273.543 84.864 280.028 83.4133 283.527 80.512C287.026 77.5253 288.775 73.6427 288.775 68.864V31.104C288.775 26.3253 287.026 22.4853 283.527 19.584C280.028 16.5973 273.543 15.104 264.071 15.104C254.599 15.104 248.156 16.5973 244.743 19.584C241.33 22.4853 239.623 26.3253 239.623 31.104V68.864ZM253.575 67.2V32.768C253.575 31.1467 254.215 29.7813 255.495 28.672C256.775 27.4773 259.719 26.88 264.327 26.88C268.935 26.88 271.879 27.4773 273.159 28.672C274.439 29.7813 275.079 31.1467 275.079 32.768V67.2C275.079 68.9067 274.439 70.3573 273.159 71.552C271.879 72.6613 268.935 73.216 264.327 73.216C259.719 73.216 256.775 72.6613 255.495 71.552C254.215 70.3573 253.575 68.9067 253.575 67.2ZM254.855 67.2C254.855 68.0533 255.026 68.8213 255.367 69.504C255.708 70.1013 256.348 70.6133 257.287 71.04V46.72C257.287 45.8667 257.116 45.1413 256.775 44.544C256.434 43.8613 255.794 43.3493 254.855 43.008V67.2ZM350.076 113.152C342.311 113.152 335.911 112.256 330.876 110.464C325.927 108.757 322.001 106.453 319.1 103.552C316.284 100.651 314.321 97.3227 313.212 93.568C312.188 89.8133 311.676 85.9307 311.676 81.92V65.024C311.676 63.9147 311.804 62.976 312.06 62.208C312.401 61.3547 312.828 60.7147 313.34 60.288L329.98 46.336C330.407 45.9947 330.961 45.7387 331.644 45.568C332.327 45.312 333.137 45.184 334.076 45.184H352.636C353.575 45.184 354.385 45.312 355.068 45.568C355.836 45.7387 356.476 46.0373 356.988 46.464V22.4C356.988 21.2907 357.116 20.352 357.372 19.584C357.713 18.816 358.183 18.176 358.78 17.664L375.292 3.712C375.719 3.37066 376.273 3.11466 376.956 2.94399C377.724 2.688 378.535 2.56 379.388 2.56H399.484C401.532 2.56 403.025 3.02933 403.964 3.96799C404.903 4.90666 405.372 6.4 405.372 8.448V71.808C405.372 75.8187 404.775 79.5307 403.58 82.944C402.471 86.272 400.465 89.1307 397.564 91.52L381.052 105.472C378.151 107.861 374.225 109.739 369.276 111.104C364.327 112.469 357.927 113.152 350.076 113.152ZM404.092 71.808V8.448C404.092 6.82667 403.708 5.67466 402.94 4.992C402.257 4.224 401.105 3.84 399.484 3.84H379.388C377.767 3.84 376.572 4.224 375.804 4.992C375.121 5.67466 374.78 6.82667 374.78 8.448V66.688C374.78 68.3947 374.268 69.8453 373.244 71.04C372.305 72.1493 370.001 72.704 366.332 72.704C362.407 72.704 359.889 72.1493 358.78 71.04C357.756 69.8453 357.244 68.3947 357.244 66.688V51.072C357.244 49.4507 356.86 48.2987 356.092 47.616C355.409 46.848 354.257 46.464 352.636 46.464H334.076C332.455 46.464 331.26 46.848 330.492 47.616C329.809 48.2987 329.468 49.4507 329.468 51.072V71.808C329.468 75.7333 329.98 79.3173 331.004 82.56C332.113 85.7173 334.033 88.448 336.764 90.752C339.58 92.9707 343.377 94.72 348.156 96C353.02 97.28 359.164 97.92 366.588 97.92C374.097 97.92 380.284 97.28 385.148 96C390.012 94.72 393.809 92.9707 396.54 90.752C399.356 88.448 401.319 85.7173 402.428 82.56C403.537 79.3173 404.092 75.7333 404.092 71.808ZM388.732 15.36H390.012V68.736C390.012 73.7707 388.391 77.9093 385.148 81.152C381.991 84.3947 375.889 86.016 366.844 86.016C362.065 86.016 358.097 85.5893 354.94 84.736C351.868 83.8827 349.436 82.7307 347.644 81.28C345.852 79.744 344.572 77.9093 343.804 75.776C343.121 73.6427 342.78 71.296 342.78 68.736V58.624H344.06V68.736C344.06 73.6 345.639 77.4827 348.796 80.384C352.039 83.2853 358.055 84.736 366.844 84.736C375.292 84.736 381.052 83.2853 384.124 80.384C387.196 77.3973 388.732 73.5147 388.732 68.736V15.36ZM481.415 111.232H422.023C419.975 111.232 418.482 110.763 417.543 109.824C416.604 108.885 416.135 107.392 416.135 105.344V22.4C416.135 21.2907 416.263 20.352 416.519 19.584C416.86 18.816 417.33 18.176 417.927 17.664L434.439 3.712C434.866 3.37066 435.42 3.11466 436.103 2.94399C436.871 2.688 437.682 2.56 438.535 2.56H497.927C499.975 2.56 501.468 3.02933 502.407 3.96799C503.346 4.90666 503.815 6.4 503.815 8.448V23.424C503.815 24.5333 503.644 25.472 503.303 26.24C503.047 27.008 502.62 27.648 502.023 28.16L491.015 37.248C491.868 37.6747 492.466 38.3147 492.807 39.168C493.234 40.0213 493.447 41.1307 493.447 42.496V56.192C493.447 57.3013 493.276 58.24 492.935 59.008C492.679 59.776 492.252 60.416 491.655 60.928L480.263 70.528H497.927C499.975 70.528 501.468 70.9973 502.407 71.936C503.346 72.8747 503.815 74.368 503.815 76.416V91.392C503.815 92.5013 503.644 93.44 503.303 94.208C503.047 94.976 502.62 95.616 502.023 96.128L485.383 109.952C485.042 110.293 484.487 110.592 483.719 110.848C483.036 111.104 482.268 111.232 481.415 111.232ZM497.927 96C499.548 96 500.7 95.6587 501.383 94.976C502.151 94.208 502.535 93.0133 502.535 91.392V76.416C502.535 74.7947 502.151 73.6427 501.383 72.96C500.7 72.192 499.548 71.808 497.927 71.808H462.599V60.8H487.559C489.18 60.8 490.332 60.4587 491.015 59.776C491.783 59.008 492.167 57.8133 492.167 56.192V42.496C492.167 40.8747 491.783 39.7227 491.015 39.04C490.332 38.272 489.18 37.888 487.559 37.888H462.599V28.032H497.927C499.548 28.032 500.7 27.6907 501.383 27.008C502.151 26.24 502.535 25.0453 502.535 23.424V8.448C502.535 6.82667 502.151 5.67466 501.383 4.992C500.7 4.224 499.548 3.84 497.927 3.84H438.535C436.914 3.84 435.719 4.224 434.951 4.992C434.268 5.67466 433.927 6.82667 433.927 8.448V91.392C433.927 93.0133 434.268 94.208 434.951 94.976C435.719 95.6587 436.914 96 438.535 96H497.927ZM491.015 83.2V84.48H447.879V15.36H491.015V16.64H449.159V48.768H480.647V50.048H449.159V83.2H491.015ZM574.602 111.232H543.37C532.191 111.232 523.914 108.331 518.538 102.528C513.247 96.7253 510.602 89.216 510.602 80V44.032C510.602 39.3387 511.285 35.2853 512.65 31.872C514.015 28.3733 516.021 25.472 518.666 23.168L535.306 9.216C537.951 6.99733 541.322 5.33333 545.418 4.224C549.514 3.11466 554.335 2.56 559.882 2.56H591.114C593.162 2.56 594.655 3.02933 595.594 3.96799C596.533 4.90666 597.002 6.4 597.002 8.448V23.936C597.002 25.0453 596.831 25.984 596.49 26.752C596.234 27.52 595.807 28.16 595.21 28.672L578.57 42.496C578.229 42.8373 577.674 43.136 576.906 43.392C576.223 43.648 575.455 43.776 574.602 43.776H558.858V65.408C558.858 67.2 559.413 68.48 560.522 69.248C561.631 69.9307 563.253 70.272 565.386 70.272H591.114C593.162 70.272 594.655 70.7413 595.594 71.68C596.533 72.6187 597.002 74.112 597.002 76.16V91.392C597.002 92.5013 596.831 93.44 596.49 94.208C596.234 94.976 595.807 95.616 595.21 96.128L578.57 109.952C578.229 110.293 577.674 110.592 576.906 110.848C576.223 111.104 575.455 111.232 574.602 111.232ZM591.114 96C592.735 96 593.887 95.6587 594.57 94.976C595.338 94.208 595.722 93.0133 595.722 91.392V76.16C595.722 74.5387 595.338 73.3867 594.57 72.704C593.887 71.936 592.735 71.552 591.114 71.552H565.386C562.741 71.552 560.778 71.0827 559.498 70.144C558.218 69.12 557.578 67.5413 557.578 65.408V34.944C557.578 32.8107 558.218 31.232 559.498 30.208C560.778 29.0987 562.741 28.544 565.386 28.544H591.114C592.735 28.544 593.887 28.2027 594.57 27.52C595.338 26.752 595.722 25.5573 595.722 23.936V8.448C595.722 6.82667 595.338 5.67466 594.57 4.992C593.887 4.224 592.735 3.84 591.114 3.84H559.882C549.215 3.84 541.279 6.016 536.074 10.368C530.954 14.6347 528.394 21.2053 528.394 30.08V69.888C528.394 78.7627 530.954 85.3333 536.074 89.6C541.279 93.8667 549.215 96 559.882 96H591.114ZM584.074 83.2V84.48H562.698C554.421 84.48 548.917 83.2 546.186 80.64C543.541 78.08 542.218 73.856 542.218 67.968V32.128C542.218 26.0693 543.583 21.76 546.314 19.2C549.045 16.64 554.506 15.36 562.698 15.36H584.074V16.64H562.698C555.189 16.64 550.111 17.8347 547.466 20.224C544.821 22.528 543.498 26.496 543.498 32.128V67.968C543.498 73.5147 544.778 77.44 547.338 79.744C549.898 82.048 555.018 83.2 562.698 83.2H584.074ZM649.935 111.232H629.199C627.151 111.232 625.658 110.763 624.719 109.824C623.78 108.885 623.311 107.392 623.311 105.344V43.776H605.775C603.727 43.776 602.234 43.3067 601.295 42.368C600.356 41.4293 599.887 39.936 599.887 37.888V22.4C599.887 21.2907 600.015 20.352 600.271 19.584C600.612 18.816 601.082 18.176 601.679 17.664L618.191 3.712C618.618 3.37066 619.172 3.11466 619.855 2.94399C620.623 2.688 621.434 2.56 622.287 2.56H689.871C691.919 2.56 693.412 3.02933 694.351 3.96799C695.29 4.90666 695.759 6.4 695.759 8.448V23.936C695.759 25.0453 695.588 25.984 695.247 26.752C694.991 27.52 694.564 28.16 693.967 28.672L677.327 42.496C676.986 42.8373 676.431 43.136 675.663 43.392C674.98 43.648 674.212 43.776 673.359 43.776H672.335V91.392C672.335 92.5013 672.164 93.44 671.823 94.208C671.567 94.976 671.14 95.616 670.543 96.128L653.903 109.952C653.562 110.293 653.007 110.592 652.239 110.848C651.556 111.104 650.788 111.232 649.935 111.232ZM666.447 96C668.068 96 669.22 95.6587 669.903 94.976C670.671 94.208 671.055 93.0133 671.055 91.392V28.544H689.871C691.492 28.544 692.644 28.2027 693.327 27.52C694.095 26.752 694.479 25.5573 694.479 23.936V8.448C694.479 6.82667 694.095 5.67466 693.327 4.992C692.644 4.224 691.492 3.84 689.871 3.84H622.287C620.666 3.84 619.471 4.224 618.703 4.992C618.02 5.67466 617.679 6.82667 617.679 8.448V23.936C617.679 25.5573 618.02 26.752 618.703 27.52C619.471 28.2027 620.666 28.544 622.287 28.544H641.103V91.392C641.103 93.0133 641.444 94.208 642.127 94.976C642.895 95.6587 644.09 96 645.711 96H666.447ZM655.439 84.48V16.64H629.199V15.36H682.959V16.64H656.719V84.48H655.439ZM705.469 111.232C703.421 111.232 701.928 110.763 700.989 109.824C700.05 108.885 699.581 107.392 699.581 105.344V90.368C699.581 89.2587 699.709 88.32 699.965 87.552C700.306 86.784 700.776 86.144 701.373 85.632L714.173 74.88C709.65 73.5147 706.066 71.2107 703.421 67.968C700.861 64.64 699.581 59.904 699.581 53.76V40.32C699.581 36.48 700.221 33.0667 701.501 30.08C702.781 27.0933 704.616 24.576 707.005 22.528L723.645 8.576C725.949 6.69866 728.808 5.248 732.221 4.224C735.634 3.11466 739.517 2.56 743.869 2.56H779.709C781.757 2.56 783.25 3.02933 784.189 3.96799C785.128 4.90666 785.597 6.4 785.597 8.448V23.68C785.597 24.7893 785.426 25.728 785.085 26.496C784.829 27.264 784.402 27.904 783.805 28.416L772.285 38.016C777.661 39.2107 781.97 41.472 785.213 44.8C788.541 48.0427 790.205 53.12 790.205 60.032V73.472C790.205 77.312 789.565 80.7253 788.285 83.712C787.005 86.6987 785.128 89.216 782.653 91.264L766.141 105.088C763.752 107.051 760.85 108.544 757.437 109.568C754.024 110.677 750.184 111.232 745.917 111.232H705.469ZM762.429 96C770.621 96 777.064 94.08 781.757 90.24C786.536 86.3147 788.925 80.7253 788.925 73.472V60.032C788.925 52.864 787.09 47.744 783.421 44.672C779.752 41.6 774.93 39.6373 768.957 38.784L749.885 36.224C748.776 36.1387 747.922 35.712 747.325 34.944C746.728 34.176 746.429 33.2373 746.429 32.128C746.429 31.0187 746.728 30.1227 747.325 29.44C747.922 28.672 748.776 28.288 749.885 28.288H779.709C781.33 28.288 782.482 27.9467 783.165 27.264C783.933 26.496 784.317 25.3013 784.317 23.68V8.448C784.317 6.82667 783.933 5.67466 783.165 4.992C782.482 4.224 781.33 3.84 779.709 3.84H743.869C735.592 3.84 729.106 5.80266 724.413 9.728C719.72 13.568 717.373 19.1147 717.373 26.368V39.808C717.373 46.976 719.165 52.096 722.749 55.168C726.418 58.24 731.24 60.2027 737.213 61.056L756.413 63.744C757.522 63.8293 758.333 64.2133 758.845 64.896C759.442 65.5787 759.741 66.6453 759.741 68.096C759.741 69.12 759.442 70.016 758.845 70.784C758.333 71.4667 757.522 71.808 756.413 71.808H721.981C720.36 71.808 719.165 72.192 718.397 72.96C717.714 73.6427 717.373 74.7947 717.373 76.416V91.392C717.373 93.0133 717.714 94.208 718.397 94.976C719.165 95.6587 720.36 96 721.981 96H762.429ZM772.797 15.36V16.64H744.381C740.797 16.64 737.938 17.6213 735.805 19.584C733.672 21.5467 732.605 24.0213 732.605 27.008V37.504C732.605 40.4907 733.202 42.5813 734.397 43.776C735.592 44.9707 737.17 45.7387 739.133 46.08L766.141 51.584C768.701 52.096 770.792 53.2053 772.413 54.912C774.12 56.6187 774.973 59.6907 774.973 64.128V71.552C774.973 75.3067 773.693 78.4213 771.133 80.896C768.573 83.2853 765.117 84.48 760.765 84.48H728.893V83.2H760.765C764.69 83.2 767.805 82.1333 770.109 80C772.498 77.7813 773.693 74.9653 773.693 71.552V64.128C773.693 60.1173 772.968 57.3867 771.517 55.936C770.152 54.4 768.274 53.376 765.885 52.864L738.877 47.36C736.658 46.9333 734.824 46.08 733.373 44.8C732.008 43.4347 731.325 41.0027 731.325 37.504V27.008C731.325 23.5947 732.52 20.8213 734.909 18.688C737.298 16.4693 740.456 15.36 744.381 15.36H772.797Z" fill="black"/>
</svg>
